M48
; DRILL file {KiCad 5.1.8-5.1.8} date Fri May  7 16:54:33 2021
; FORMAT={-:-/ absolute / inch / decimal}
; #@! TF.CreationDate,2021-05-07T16:54:33+02:00
; #@! TF.GenerationSoftware,Kicad,Pcbnew,5.1.8-5.1.8
FMAT,2
INCH
T1C0.0157
T2C0.0197
T3C0.0315
T4C0.0350
T5C0.0354
T6C0.0394
T7C0.0433
T8C0.0591
T9C0.0618
T10C0.1260
T11C0.1280
%
G90
G05
T1
X3.7854Y-3.3917
X4.2205Y-3.252
T2
X4.5807Y-3.9902
X4.6084Y-3.9233
X4.6084Y-4.057
X4.6752Y-3.8957
X4.6752Y-4.0846
X4.742Y-3.9233
X4.742Y-4.057
X4.7697Y-3.9902
X4.5807Y-2.2382
X4.6084Y-2.1714
X4.6084Y-2.305
X4.6752Y-2.1437
X4.6752Y-2.3327
X4.742Y-2.1714
X4.742Y-2.305
X4.7697Y-2.2382
X2.248Y-3.9902
X2.2757Y-3.9233
X2.2757Y-4.057
X2.3425Y-3.8957
X2.3425Y-4.0846
X2.4093Y-3.9233
X2.4093Y-4.057
X2.437Y-3.9902
X2.248Y-2.2382
X2.2757Y-2.1714
X2.2757Y-2.305
X2.3425Y-2.1437
X2.3425Y-2.3327
X2.4093Y-2.1714
X2.4093Y-2.305
X2.437Y-2.2382
T3
X3.1398Y-2.4705
X3.1398Y-2.7705
X2.9859Y-3.72
X2.9859Y-4.02
X2.4114Y-2.4705
X2.4114Y-2.7705
X4.0259Y-3.72
X4.0259Y-4.02
X3.8878Y-2.4705
X3.8878Y-2.7705
X3.5059Y-3.72
X3.5059Y-4.02
T4
X4.4024Y-3.1502
X4.4024Y-3.2302
X4.4024Y-3.3102
X4.4024Y-3.3902
X4.4724Y-3.1102
X4.4724Y-3.1902
X4.4724Y-3.2702
X4.4724Y-3.3502
T5
X2.6859Y-3.93
X2.7859Y-3.93
X3.7259Y-3.93
X3.8259Y-3.93
X3.2059Y-3.93
X3.3059Y-3.93
T6
X3.8976Y-2.9921
X3.8976Y-3.0921
X3.8976Y-3.1921
X3.8976Y-3.2921
X3.8976Y-3.3921
X3.8976Y-3.4921
X3.4154Y-2.185
X3.4154Y-2.7559
X3.5138Y-2.7559
X3.6122Y-2.185
X3.6122Y-2.7559
X4.1535Y-2.185
X4.1535Y-2.7559
X4.252Y-2.7559
X4.3504Y-2.185
X4.3504Y-2.7559
X2.6673Y-2.185
X2.6673Y-2.7559
X2.7657Y-2.7559
X2.8642Y-2.185
X2.8642Y-2.7559
T7
X2.3639Y-2.944
X2.3639Y-3.544
X2.4639Y-2.944
X2.4639Y-3.544
X2.5639Y-2.944
X2.5639Y-3.544
X2.6639Y-2.944
X2.6639Y-3.544
X2.7639Y-2.944
X2.7639Y-3.544
X2.8639Y-2.944
X2.8639Y-3.544
X2.9639Y-2.944
X2.9639Y-3.544
X3.0639Y-2.944
X3.0639Y-3.544
X3.1639Y-2.944
X3.1639Y-3.544
X3.2639Y-2.944
X3.2639Y-3.544
X3.3639Y-2.944
X3.3639Y-3.544
X3.4639Y-2.944
X3.4639Y-3.544
T9
X4.4374Y-2.9303
X4.4374Y-3.5705
T10
X4.6752Y-2.2382
X2.3425Y-3.9902
X2.3425Y-2.2382
X4.6752Y-3.9902
T11
X4.5724Y-3.0004
X4.5724Y-3.5004
T8
G00X3.2933Y-2.4862
M15
G01X3.2933Y-2.435
M16
G05
G00X3.7343Y-2.4862
M15
G01X3.7343Y-2.435
M16
G05
G00X4.0315Y-2.4862
M15
G01X4.0315Y-2.435
M16
G05
G00X4.4724Y-2.4862
M15
G01X4.4724Y-2.435
M16
G05
G00X2.5453Y-2.4862
M15
G01X2.5453Y-2.435
M16
G05
G00X2.9862Y-2.4862
M15
G01X2.9862Y-2.435
M16
G05
T0
M30
