%TF.GenerationSoftware,KiCad,Pcbnew,5.1.8-5.1.8*%
%TF.CreationDate,2021-05-07T16:54:23+02:00*%
%TF.ProjectId,modelMterminalAdapter,6d6f6465-6c4d-4746-9572-6d696e616c41,rev?*%
%TF.SameCoordinates,Original*%
%TF.FileFunction,Copper,L1,Top*%
%TF.FilePolarity,Positive*%
%FSLAX46Y46*%
G04 Gerber Fmt 4.6, Leading zero omitted, Abs format (unit mm)*
G04 Created by KiCad (PCBNEW 5.1.8-5.1.8) date 2021-05-07 16:54:23*
%MOMM*%
%LPD*%
G01*
G04 APERTURE LIST*
%TA.AperFunction,NonConductor*%
%ADD10C,0.300000*%
%TD*%
%TA.AperFunction,ComponentPad*%
%ADD11C,2.300000*%
%TD*%
%TA.AperFunction,ComponentPad*%
%ADD12C,1.500000*%
%TD*%
%TA.AperFunction,ComponentPad*%
%ADD13R,1.500000X1.500000*%
%TD*%
%TA.AperFunction,SMDPad,CuDef*%
%ADD14R,1.500000X1.500000*%
%TD*%
%TA.AperFunction,ComponentPad*%
%ADD15O,1.700000X1.700000*%
%TD*%
%TA.AperFunction,ComponentPad*%
%ADD16R,1.700000X1.700000*%
%TD*%
%TA.AperFunction,ComponentPad*%
%ADD17O,1.600000X1.600000*%
%TD*%
%TA.AperFunction,ComponentPad*%
%ADD18C,1.600000*%
%TD*%
%TA.AperFunction,ComponentPad*%
%ADD19R,2.000000X2.000000*%
%TD*%
%TA.AperFunction,ComponentPad*%
%ADD20C,2.000000*%
%TD*%
%TA.AperFunction,ComponentPad*%
%ADD21R,2.000000X3.200000*%
%TD*%
%TA.AperFunction,ComponentPad*%
%ADD22C,6.400000*%
%TD*%
%TA.AperFunction,ComponentPad*%
%ADD23C,0.800000*%
%TD*%
%TA.AperFunction,ComponentPad*%
%ADD24R,1.600000X1.600000*%
%TD*%
%TA.AperFunction,ComponentPad*%
%ADD25C,1.800000*%
%TD*%
%TA.AperFunction,ComponentPad*%
%ADD26R,1.800000X1.800000*%
%TD*%
%TA.AperFunction,ViaPad*%
%ADD27C,0.800000*%
%TD*%
%TA.AperFunction,Conductor*%
%ADD28C,0.250000*%
%TD*%
%TA.AperFunction,Conductor*%
%ADD29C,0.254000*%
%TD*%
%TA.AperFunction,Conductor*%
%ADD30C,0.100000*%
%TD*%
G04 APERTURE END LIST*
D10*
X120078571Y-65572857D02*
X121578571Y-65072857D01*
X120078571Y-64572857D01*
X121435714Y-64072857D02*
X121507142Y-64001428D01*
X121578571Y-64072857D01*
X121507142Y-64144285D01*
X121435714Y-64072857D01*
X121578571Y-64072857D01*
X121578571Y-62572857D02*
X121578571Y-63430000D01*
X121578571Y-63001428D02*
X120078571Y-63001428D01*
X120292857Y-63144285D01*
X120435714Y-63287142D01*
X120507142Y-63430000D01*
X121435714Y-61930000D02*
X121507142Y-61858571D01*
X121578571Y-61930000D01*
X121507142Y-62001428D01*
X121435714Y-61930000D01*
X121578571Y-61930000D01*
X120078571Y-60930000D02*
X120078571Y-60787142D01*
X120150000Y-60644285D01*
X120221428Y-60572857D01*
X120364285Y-60501428D01*
X120650000Y-60430000D01*
X121007142Y-60430000D01*
X121292857Y-60501428D01*
X121435714Y-60572857D01*
X121507142Y-60644285D01*
X121578571Y-60787142D01*
X121578571Y-60930000D01*
X121507142Y-61072857D01*
X121435714Y-61144285D01*
X121292857Y-61215714D01*
X121007142Y-61287142D01*
X120650000Y-61287142D01*
X120364285Y-61215714D01*
X120221428Y-61144285D01*
X120150000Y-61072857D01*
X120078571Y-60930000D01*
D11*
%TO.P,J1,SH*%
%TO.N,N/C*%
X112710000Y-74430000D03*
X112710000Y-90690000D03*
D12*
%TO.P,J1,8*%
%TO.N,Net-(J1-Pad8)*%
X111820000Y-86112000D03*
%TO.P,J1,6*%
%TO.N,GND*%
X111820000Y-84080000D03*
%TO.P,J1,4*%
%TO.N,Net-(J1-Pad4)*%
X111820000Y-82048000D03*
%TO.P,J1,2*%
%TO.N,Net-(J1-Pad2)*%
X111820000Y-80016000D03*
%TO.P,J1,7*%
%TO.N,Net-(J1-Pad7)*%
X113600000Y-85096000D03*
%TO.P,J1,5*%
%TO.N,Net-(J1-Pad5)*%
X113600000Y-83064000D03*
%TO.P,J1,3*%
%TO.N,VCC*%
X113600000Y-81032000D03*
D13*
%TO.P,J1,1*%
%TO.N,Net-(J1-Pad1)*%
X113600000Y-79000000D03*
%TD*%
D14*
%TO.P,SW4,2*%
%TO.N,GND*%
X93240000Y-86150000D03*
%TO.P,SW4,1*%
%TO.N,Net-(SW4-Pad1)*%
X93240000Y-78350000D03*
%TD*%
D15*
%TO.P,J2,6*%
%TO.N,Net-(J2-Pad6)*%
X99000000Y-88700000D03*
%TO.P,J2,5*%
%TO.N,Net-(J2-Pad5)*%
X99000000Y-86160000D03*
%TO.P,J2,4*%
%TO.N,Net-(J2-Pad4)*%
X99000000Y-83620000D03*
%TO.P,J2,3*%
%TO.N,Net-(J2-Pad3)*%
X99000000Y-81080000D03*
%TO.P,J2,2*%
%TO.N,GND*%
X99000000Y-78540000D03*
D16*
%TO.P,J2,1*%
%TO.N,VCC*%
X99000000Y-76000000D03*
%TD*%
D17*
%TO.P,R4,2*%
%TO.N,GND*%
X98750000Y-70370000D03*
D18*
%TO.P,R4,1*%
%TO.N,Net-(R4-Pad1)*%
X98750000Y-62750000D03*
%TD*%
D19*
%TO.P,SW3,A*%
%TO.N,Net-(SW3-PadA)*%
X105500000Y-70000000D03*
D20*
%TO.P,SW3,C*%
%TO.N,GND*%
X108000000Y-70000000D03*
%TO.P,SW3,B*%
%TO.N,Net-(SW3-PadB)*%
X110500000Y-70000000D03*
D21*
%TO.P,SW3,MP*%
%TO.N,N/C*%
X102400000Y-62500000D03*
X113600000Y-62500000D03*
D20*
%TO.P,SW3,S2*%
%TO.N,Net-(R4-Pad1)*%
X105500000Y-55500000D03*
%TO.P,SW3,S1*%
%TO.N,VCC*%
X110500000Y-55500000D03*
%TD*%
D22*
%TO.P,REF\u002A\u002A,1*%
%TO.N,N/C*%
X59500000Y-101350000D03*
D23*
X61900000Y-101350000D03*
X61197056Y-103047056D03*
X59500000Y-103750000D03*
X57802944Y-103047056D03*
X57100000Y-101350000D03*
X57802944Y-99652944D03*
X59500000Y-98950000D03*
X61197056Y-99652944D03*
%TD*%
D22*
%TO.P,REF\u002A\u002A,1*%
%TO.N,N/C*%
X59500000Y-56850000D03*
D23*
X61900000Y-56850000D03*
X61197056Y-58547056D03*
X59500000Y-59250000D03*
X57802944Y-58547056D03*
X57100000Y-56850000D03*
X57802944Y-55152944D03*
X59500000Y-54450000D03*
X61197056Y-55152944D03*
%TD*%
D22*
%TO.P,REF\u002A\u002A,1*%
%TO.N,N/C*%
X118750000Y-101350000D03*
D23*
X121150000Y-101350000D03*
X120447056Y-103047056D03*
X118750000Y-103750000D03*
X117052944Y-103047056D03*
X116350000Y-101350000D03*
X117052944Y-99652944D03*
X118750000Y-98950000D03*
X120447056Y-99652944D03*
%TD*%
%TO.P,REF\u002A\u002A,1*%
%TO.N,N/C*%
X120447056Y-55152944D03*
X118750000Y-54450000D03*
X117052944Y-55152944D03*
X116350000Y-56850000D03*
X117052944Y-58547056D03*
X118750000Y-59250000D03*
X120447056Y-58547056D03*
X121150000Y-56850000D03*
D22*
X118750000Y-56850000D03*
%TD*%
D17*
%TO.P,R6,2*%
%TO.N,GND*%
X79750000Y-70370000D03*
D18*
%TO.P,R6,1*%
%TO.N,Net-(R6-Pad1)*%
X79750000Y-62750000D03*
%TD*%
D17*
%TO.P,R5,2*%
%TO.N,GND*%
X61250000Y-70370000D03*
D18*
%TO.P,R5,1*%
%TO.N,Net-(R5-Pad1)*%
X61250000Y-62750000D03*
%TD*%
D17*
%TO.P,R3,2*%
%TO.N,Net-(D3-Pad2)*%
X102258000Y-102108000D03*
D18*
%TO.P,R3,1*%
%TO.N,Net-(R3-Pad1)*%
X102258000Y-94488000D03*
%TD*%
D17*
%TO.P,R2,2*%
%TO.N,Net-(D2-Pad2)*%
X89050000Y-102108000D03*
D18*
%TO.P,R2,1*%
%TO.N,Net-(R2-Pad1)*%
X89050000Y-94488000D03*
%TD*%
D17*
%TO.P,R1,2*%
%TO.N,Net-(D1-Pad2)*%
X75842000Y-102108000D03*
D18*
%TO.P,R1,1*%
%TO.N,Net-(R1-Pad1)*%
X75842000Y-94488000D03*
%TD*%
%TO.P,U1,24*%
%TO.N,Net-(U1-Pad24)*%
X60042000Y-74778000D03*
%TO.P,U1,23*%
%TO.N,GND*%
X62582000Y-74778000D03*
%TO.P,U1,22*%
%TO.N,Net-(SW4-Pad1)*%
X65122000Y-74778000D03*
%TO.P,U1,21*%
%TO.N,VCC*%
X67662000Y-74778000D03*
%TO.P,U1,20*%
%TO.N,Net-(SW1-PadA)*%
X70202000Y-74778000D03*
%TO.P,U1,19*%
%TO.N,Net-(SW1-PadB)*%
X72742000Y-74778000D03*
%TO.P,U1,18*%
%TO.N,Net-(R5-Pad1)*%
X75282000Y-74778000D03*
%TO.P,U1,17*%
%TO.N,Net-(SW2-PadA)*%
X77822000Y-74778000D03*
%TO.P,U1,16*%
%TO.N,Net-(SW2-PadB)*%
X80362000Y-74778000D03*
%TO.P,U1,15*%
%TO.N,Net-(R6-Pad1)*%
X82902000Y-74778000D03*
%TO.P,U1,14*%
%TO.N,Net-(SW3-PadA)*%
X85442000Y-74778000D03*
%TO.P,U1,13*%
%TO.N,Net-(SW3-PadB)*%
X87982000Y-74778000D03*
%TO.P,U1,12*%
%TO.N,Net-(J2-Pad6)*%
X87982000Y-90018000D03*
%TO.P,U1,11*%
%TO.N,Net-(J2-Pad5)*%
X85442000Y-90018000D03*
%TO.P,U1,10*%
%TO.N,Net-(R4-Pad1)*%
X82902000Y-90018000D03*
%TO.P,U1,9*%
%TO.N,Net-(R3-Pad1)*%
X80362000Y-90018000D03*
%TO.P,U1,8*%
%TO.N,Net-(R2-Pad1)*%
X77822000Y-90018000D03*
%TO.P,U1,7*%
%TO.N,Net-(R1-Pad1)*%
X75282000Y-90018000D03*
%TO.P,U1,6*%
%TO.N,Net-(J1-Pad4)*%
X72742000Y-90018000D03*
%TO.P,U1,5*%
%TO.N,Net-(J1-Pad5)*%
X70202000Y-90018000D03*
%TO.P,U1,4*%
%TO.N,GND*%
X67662000Y-90018000D03*
%TO.P,U1,3*%
X65122000Y-90018000D03*
%TO.P,U1,2*%
%TO.N,Net-(J2-Pad4)*%
X62582000Y-90018000D03*
D24*
%TO.P,U1,1*%
%TO.N,Net-(J2-Pad3)*%
X60042000Y-90018000D03*
%TD*%
D19*
%TO.P,SW2,A*%
%TO.N,Net-(SW2-PadA)*%
X86750000Y-70000000D03*
D20*
%TO.P,SW2,C*%
%TO.N,GND*%
X89250000Y-70000000D03*
%TO.P,SW2,B*%
%TO.N,Net-(SW2-PadB)*%
X91750000Y-70000000D03*
D21*
%TO.P,SW2,MP*%
%TO.N,N/C*%
X83650000Y-62500000D03*
X94850000Y-62500000D03*
D20*
%TO.P,SW2,S2*%
%TO.N,Net-(R6-Pad1)*%
X86750000Y-55500000D03*
%TO.P,SW2,S1*%
%TO.N,VCC*%
X91750000Y-55500000D03*
%TD*%
D19*
%TO.P,SW1,A*%
%TO.N,Net-(SW1-PadA)*%
X67750000Y-70000000D03*
D20*
%TO.P,SW1,C*%
%TO.N,GND*%
X70250000Y-70000000D03*
%TO.P,SW1,B*%
%TO.N,Net-(SW1-PadB)*%
X72750000Y-70000000D03*
D21*
%TO.P,SW1,MP*%
%TO.N,N/C*%
X64650000Y-62500000D03*
X75850000Y-62500000D03*
D20*
%TO.P,SW1,S2*%
%TO.N,Net-(R5-Pad1)*%
X67750000Y-55500000D03*
%TO.P,SW1,S1*%
%TO.N,VCC*%
X72750000Y-55500000D03*
%TD*%
D25*
%TO.P,D3,2*%
%TO.N,Net-(D3-Pad2)*%
X97178000Y-99822000D03*
D26*
%TO.P,D3,1*%
%TO.N,GND*%
X94638000Y-99822000D03*
%TD*%
D25*
%TO.P,D2,2*%
%TO.N,Net-(D2-Pad2)*%
X83970000Y-99822000D03*
D26*
%TO.P,D2,1*%
%TO.N,GND*%
X81430000Y-99822000D03*
%TD*%
D25*
%TO.P,D1,2*%
%TO.N,Net-(D1-Pad2)*%
X70762000Y-99822000D03*
D26*
%TO.P,D1,1*%
%TO.N,GND*%
X68222000Y-99822000D03*
%TD*%
D27*
%TO.N,GND*%
X96150000Y-86150000D03*
X107200000Y-82600000D03*
%TD*%
D28*
%TO.N,Net-(D1-Pad2)*%
X73048000Y-102108000D02*
X70762000Y-99822000D01*
X75842000Y-102108000D02*
X73048000Y-102108000D01*
%TO.N,Net-(D2-Pad2)*%
X86256000Y-102108000D02*
X83970000Y-99822000D01*
X89050000Y-102108000D02*
X86256000Y-102108000D01*
%TO.N,Net-(D3-Pad2)*%
X99464000Y-102108000D02*
X97178000Y-99822000D01*
X102258000Y-102108000D02*
X99464000Y-102108000D01*
%TO.N,Net-(J1-Pad5)*%
X77964999Y-82255001D02*
X70202000Y-90018000D01*
X103244999Y-82255001D02*
X77964999Y-82255001D01*
X107575001Y-77924999D02*
X103244999Y-82255001D01*
X115200000Y-81464000D02*
X115200000Y-78514998D01*
X114610001Y-77924999D02*
X107575001Y-77924999D01*
X115200000Y-78514998D02*
X114610001Y-77924999D01*
X113600000Y-83064000D02*
X115200000Y-81464000D01*
%TO.N,Net-(J1-Pad4)*%
X106343001Y-87524999D02*
X111820000Y-82048000D01*
X75235001Y-87524999D02*
X106343001Y-87524999D01*
X72742000Y-90018000D02*
X75235001Y-87524999D01*
%TO.N,Net-(SW1-PadA)*%
X67750000Y-72326000D02*
X70202000Y-74778000D01*
X67750000Y-70000000D02*
X67750000Y-72326000D01*
%TO.N,Net-(SW1-PadB)*%
X73000000Y-74520000D02*
X72742000Y-74778000D01*
X72750000Y-74770000D02*
X72742000Y-74778000D01*
X72750000Y-70000000D02*
X72750000Y-74770000D01*
%TO.N,Net-(SW2-PadA)*%
X82600000Y-70000000D02*
X77822000Y-74778000D01*
X86750000Y-70000000D02*
X82600000Y-70000000D01*
%TO.N,Net-(SW2-PadB)*%
X83814999Y-71325001D02*
X80362000Y-74778000D01*
X90424999Y-71325001D02*
X83814999Y-71325001D01*
X91750000Y-70000000D02*
X90424999Y-71325001D01*
%TO.N,Net-(R3-Pad1)*%
X101132999Y-93362999D02*
X102258000Y-94488000D01*
X83706999Y-93362999D02*
X101132999Y-93362999D01*
X80362000Y-90018000D02*
X83706999Y-93362999D01*
%TO.N,Net-(R2-Pad1)*%
X78080000Y-90018000D02*
X77822000Y-90018000D01*
X82550000Y-94488000D02*
X78080000Y-90018000D01*
X89050000Y-94488000D02*
X82550000Y-94488000D01*
%TO.N,Net-(R1-Pad1)*%
X75282000Y-93928000D02*
X75842000Y-94488000D01*
X75282000Y-90018000D02*
X75282000Y-93928000D01*
%TO.N,VCC*%
X66250000Y-73366000D02*
X67662000Y-74778000D01*
X66250000Y-62250000D02*
X66250000Y-73366000D01*
X73000000Y-55500000D02*
X66250000Y-62250000D01*
X68884000Y-76000000D02*
X99000000Y-76000000D01*
X67662000Y-74778000D02*
X68884000Y-76000000D01*
X89750000Y-57500000D02*
X91750000Y-55500000D01*
X74750000Y-57500000D02*
X89750000Y-57500000D01*
X72750000Y-55500000D02*
X74750000Y-57500000D01*
X108500000Y-57500000D02*
X110500000Y-55500000D01*
X93750000Y-57500000D02*
X108500000Y-57500000D01*
X91750000Y-55500000D02*
X93750000Y-57500000D01*
%TO.N,Net-(J2-Pad3)*%
X98275009Y-81804991D02*
X99000000Y-81080000D01*
X68255009Y-81804991D02*
X98275009Y-81804991D01*
X60042000Y-90018000D02*
X68255009Y-81804991D01*
%TO.N,Net-(J2-Pad6)*%
X97682000Y-90018000D02*
X99000000Y-88700000D01*
X87982000Y-90018000D02*
X97682000Y-90018000D01*
%TO.N,Net-(SW3-PadA)*%
X88444989Y-71775011D02*
X85442000Y-74778000D01*
X103724989Y-71775011D02*
X88444989Y-71775011D01*
X105500000Y-70000000D02*
X103724989Y-71775011D01*
%TO.N,Net-(SW3-PadB)*%
X110500000Y-70000000D02*
X108000000Y-72500000D01*
X90260000Y-72500000D02*
X87982000Y-74778000D01*
X108000000Y-72500000D02*
X90260000Y-72500000D01*
%TO.N,Net-(SW4-Pad1)*%
X68694000Y-78350000D02*
X93240000Y-78350000D01*
X65122000Y-74778000D02*
X68694000Y-78350000D01*
%TD*%
D29*
%TO.N,GND*%
X66975537Y-54051082D02*
X66707748Y-54230013D01*
X66480013Y-54457748D01*
X66301082Y-54725537D01*
X66177832Y-55023088D01*
X66115000Y-55338967D01*
X66115000Y-55661033D01*
X66177832Y-55976912D01*
X66301082Y-56274463D01*
X66480013Y-56542252D01*
X66707748Y-56769987D01*
X66975537Y-56948918D01*
X67273088Y-57072168D01*
X67588967Y-57135000D01*
X67911033Y-57135000D01*
X68226912Y-57072168D01*
X68524463Y-56948918D01*
X68792252Y-56769987D01*
X69019987Y-56542252D01*
X69198918Y-56274463D01*
X69322168Y-55976912D01*
X69385000Y-55661033D01*
X69385000Y-55338967D01*
X69322168Y-55023088D01*
X69198918Y-54725537D01*
X69019987Y-54457748D01*
X68792252Y-54230013D01*
X68524463Y-54051082D01*
X68232146Y-53930000D01*
X72267854Y-53930000D01*
X71975537Y-54051082D01*
X71707748Y-54230013D01*
X71480013Y-54457748D01*
X71301082Y-54725537D01*
X71177832Y-55023088D01*
X71115000Y-55338967D01*
X71115000Y-55661033D01*
X71177832Y-55976912D01*
X71257046Y-56168152D01*
X66288072Y-61137127D01*
X66288072Y-60900000D01*
X66275812Y-60775518D01*
X66239502Y-60655820D01*
X66180537Y-60545506D01*
X66101185Y-60448815D01*
X66004494Y-60369463D01*
X65894180Y-60310498D01*
X65774482Y-60274188D01*
X65650000Y-60261928D01*
X63650000Y-60261928D01*
X63525518Y-60274188D01*
X63405820Y-60310498D01*
X63295506Y-60369463D01*
X63198815Y-60448815D01*
X63119463Y-60545506D01*
X63060498Y-60655820D01*
X63024188Y-60775518D01*
X63011928Y-60900000D01*
X63011928Y-64100000D01*
X63024188Y-64224482D01*
X63060498Y-64344180D01*
X63119463Y-64454494D01*
X63198815Y-64551185D01*
X63295506Y-64630537D01*
X63405820Y-64689502D01*
X63525518Y-64725812D01*
X63650000Y-64738072D01*
X65490000Y-64738072D01*
X65490001Y-73328668D01*
X65486324Y-73366000D01*
X65488469Y-73387783D01*
X65263335Y-73343000D01*
X64980665Y-73343000D01*
X64703426Y-73398147D01*
X64442273Y-73506320D01*
X64207241Y-73663363D01*
X64007363Y-73863241D01*
X63851085Y-74097128D01*
X63818671Y-74036486D01*
X63574702Y-73964903D01*
X62761605Y-74778000D01*
X63574702Y-75591097D01*
X63818671Y-75519514D01*
X63849194Y-75455008D01*
X63850320Y-75457727D01*
X64007363Y-75692759D01*
X64207241Y-75892637D01*
X64442273Y-76049680D01*
X64703426Y-76157853D01*
X64980665Y-76213000D01*
X65263335Y-76213000D01*
X65445887Y-76176688D01*
X68130201Y-78861003D01*
X68153999Y-78890001D01*
X68269724Y-78984974D01*
X68401753Y-79055546D01*
X68545014Y-79099003D01*
X68656667Y-79110000D01*
X68656677Y-79110000D01*
X68694000Y-79113676D01*
X68731323Y-79110000D01*
X91852913Y-79110000D01*
X91864188Y-79224482D01*
X91900498Y-79344180D01*
X91959463Y-79454494D01*
X92038815Y-79551185D01*
X92135506Y-79630537D01*
X92245820Y-79689502D01*
X92365518Y-79725812D01*
X92490000Y-79738072D01*
X93990000Y-79738072D01*
X94114482Y-79725812D01*
X94234180Y-79689502D01*
X94344494Y-79630537D01*
X94441185Y-79551185D01*
X94520537Y-79454494D01*
X94579502Y-79344180D01*
X94615812Y-79224482D01*
X94628072Y-79100000D01*
X94628072Y-77600000D01*
X94615812Y-77475518D01*
X94579502Y-77355820D01*
X94520537Y-77245506D01*
X94441185Y-77148815D01*
X94344494Y-77069463D01*
X94234180Y-77010498D01*
X94114482Y-76974188D01*
X93990000Y-76961928D01*
X92490000Y-76961928D01*
X92365518Y-76974188D01*
X92245820Y-77010498D01*
X92135506Y-77069463D01*
X92038815Y-77148815D01*
X91959463Y-77245506D01*
X91900498Y-77355820D01*
X91864188Y-77475518D01*
X91852913Y-77590000D01*
X69008802Y-77590000D01*
X67631802Y-76213000D01*
X67803335Y-76213000D01*
X67985886Y-76176688D01*
X68320201Y-76511003D01*
X68343999Y-76540001D01*
X68372997Y-76563799D01*
X68459723Y-76634974D01*
X68591753Y-76705546D01*
X68735014Y-76749003D01*
X68846667Y-76760000D01*
X68846677Y-76760000D01*
X68884000Y-76763676D01*
X68921323Y-76760000D01*
X97511928Y-76760000D01*
X97511928Y-76850000D01*
X97524188Y-76974482D01*
X97560498Y-77094180D01*
X97619463Y-77204494D01*
X97698815Y-77301185D01*
X97795506Y-77380537D01*
X97905820Y-77439502D01*
X97986466Y-77463966D01*
X97902412Y-77539731D01*
X97728359Y-77773080D01*
X97603175Y-78035901D01*
X97558524Y-78183110D01*
X97679845Y-78413000D01*
X98873000Y-78413000D01*
X98873000Y-78393000D01*
X99127000Y-78393000D01*
X99127000Y-78413000D01*
X100320155Y-78413000D01*
X100441476Y-78183110D01*
X100396825Y-78035901D01*
X100271641Y-77773080D01*
X100097588Y-77539731D01*
X100013534Y-77463966D01*
X100094180Y-77439502D01*
X100204494Y-77380537D01*
X100301185Y-77301185D01*
X100380537Y-77204494D01*
X100439502Y-77094180D01*
X100475812Y-76974482D01*
X100488072Y-76850000D01*
X100488072Y-75150000D01*
X100475812Y-75025518D01*
X100439502Y-74905820D01*
X100380537Y-74795506D01*
X100301185Y-74698815D01*
X100204494Y-74619463D01*
X100094180Y-74560498D01*
X99974482Y-74524188D01*
X99850000Y-74511928D01*
X98150000Y-74511928D01*
X98025518Y-74524188D01*
X97905820Y-74560498D01*
X97795506Y-74619463D01*
X97698815Y-74698815D01*
X97619463Y-74795506D01*
X97560498Y-74905820D01*
X97524188Y-75025518D01*
X97511928Y-75150000D01*
X97511928Y-75240000D01*
X89343865Y-75240000D01*
X89361853Y-75196574D01*
X89417000Y-74919335D01*
X89417000Y-74636665D01*
X89380688Y-74454114D01*
X90574803Y-73260000D01*
X107962678Y-73260000D01*
X108000000Y-73263676D01*
X108037322Y-73260000D01*
X108037333Y-73260000D01*
X108148986Y-73249003D01*
X108292247Y-73205546D01*
X108424276Y-73134974D01*
X108540001Y-73040001D01*
X108563804Y-73010997D01*
X110008625Y-71566177D01*
X110023088Y-71572168D01*
X110338967Y-71635000D01*
X110661033Y-71635000D01*
X110976912Y-71572168D01*
X111274463Y-71448918D01*
X111542252Y-71269987D01*
X111769987Y-71042252D01*
X111948918Y-70774463D01*
X112072168Y-70476912D01*
X112135000Y-70161033D01*
X112135000Y-69838967D01*
X112072168Y-69523088D01*
X111948918Y-69225537D01*
X111769987Y-68957748D01*
X111542252Y-68730013D01*
X111274463Y-68551082D01*
X110976912Y-68427832D01*
X110661033Y-68365000D01*
X110338967Y-68365000D01*
X110023088Y-68427832D01*
X109725537Y-68551082D01*
X109457748Y-68730013D01*
X109230013Y-68957748D01*
X109165075Y-69054935D01*
X109135413Y-69044192D01*
X108179605Y-70000000D01*
X108193748Y-70014143D01*
X108014143Y-70193748D01*
X108000000Y-70179605D01*
X107985858Y-70193748D01*
X107806253Y-70014143D01*
X107820395Y-70000000D01*
X107806253Y-69985858D01*
X107985858Y-69806253D01*
X108000000Y-69820395D01*
X108955808Y-68864587D01*
X108860044Y-68600186D01*
X108570429Y-68459296D01*
X108258892Y-68377616D01*
X107937405Y-68358282D01*
X107618325Y-68402039D01*
X107313912Y-68507205D01*
X107139956Y-68600186D01*
X107085976Y-68749223D01*
X107030537Y-68645506D01*
X106951185Y-68548815D01*
X106854494Y-68469463D01*
X106744180Y-68410498D01*
X106624482Y-68374188D01*
X106500000Y-68361928D01*
X104500000Y-68361928D01*
X104375518Y-68374188D01*
X104255820Y-68410498D01*
X104145506Y-68469463D01*
X104048815Y-68548815D01*
X103969463Y-68645506D01*
X103910498Y-68755820D01*
X103874188Y-68875518D01*
X103861928Y-69000000D01*
X103861928Y-70563271D01*
X103410188Y-71015011D01*
X100028400Y-71015011D01*
X100047070Y-70983881D01*
X100141909Y-70719040D01*
X100020624Y-70497000D01*
X98877000Y-70497000D01*
X98877000Y-70517000D01*
X98623000Y-70517000D01*
X98623000Y-70497000D01*
X97479376Y-70497000D01*
X97358091Y-70719040D01*
X97452930Y-70983881D01*
X97471600Y-71015011D01*
X93038189Y-71015011D01*
X93198918Y-70774463D01*
X93322168Y-70476912D01*
X93385000Y-70161033D01*
X93385000Y-70020960D01*
X97358091Y-70020960D01*
X97479376Y-70243000D01*
X98623000Y-70243000D01*
X98623000Y-69100085D01*
X98877000Y-69100085D01*
X98877000Y-70243000D01*
X100020624Y-70243000D01*
X100141909Y-70020960D01*
X100047070Y-69756119D01*
X99902385Y-69514869D01*
X99713414Y-69306481D01*
X99487420Y-69138963D01*
X99233087Y-69018754D01*
X99099039Y-68978096D01*
X98877000Y-69100085D01*
X98623000Y-69100085D01*
X98400961Y-68978096D01*
X98266913Y-69018754D01*
X98012580Y-69138963D01*
X97786586Y-69306481D01*
X97597615Y-69514869D01*
X97452930Y-69756119D01*
X97358091Y-70020960D01*
X93385000Y-70020960D01*
X93385000Y-69838967D01*
X93322168Y-69523088D01*
X93198918Y-69225537D01*
X93019987Y-68957748D01*
X92792252Y-68730013D01*
X92524463Y-68551082D01*
X92226912Y-68427832D01*
X91911033Y-68365000D01*
X91588967Y-68365000D01*
X91273088Y-68427832D01*
X90975537Y-68551082D01*
X90707748Y-68730013D01*
X90480013Y-68957748D01*
X90415075Y-69054935D01*
X90385413Y-69044192D01*
X89429605Y-70000000D01*
X89443748Y-70014143D01*
X89264143Y-70193748D01*
X89250000Y-70179605D01*
X89235858Y-70193748D01*
X89056253Y-70014143D01*
X89070395Y-70000000D01*
X89056253Y-69985858D01*
X89235858Y-69806253D01*
X89250000Y-69820395D01*
X90205808Y-68864587D01*
X90110044Y-68600186D01*
X89820429Y-68459296D01*
X89508892Y-68377616D01*
X89187405Y-68358282D01*
X88868325Y-68402039D01*
X88563912Y-68507205D01*
X88389956Y-68600186D01*
X88335976Y-68749223D01*
X88280537Y-68645506D01*
X88201185Y-68548815D01*
X88104494Y-68469463D01*
X87994180Y-68410498D01*
X87874482Y-68374188D01*
X87750000Y-68361928D01*
X85750000Y-68361928D01*
X85625518Y-68374188D01*
X85505820Y-68410498D01*
X85395506Y-68469463D01*
X85298815Y-68548815D01*
X85219463Y-68645506D01*
X85160498Y-68755820D01*
X85124188Y-68875518D01*
X85111928Y-69000000D01*
X85111928Y-69240000D01*
X82637322Y-69240000D01*
X82599999Y-69236324D01*
X82562676Y-69240000D01*
X82562667Y-69240000D01*
X82451014Y-69250997D01*
X82307753Y-69294454D01*
X82175724Y-69365026D01*
X82175722Y-69365027D01*
X82175723Y-69365027D01*
X82088996Y-69436201D01*
X82088992Y-69436205D01*
X82059999Y-69459999D01*
X82036205Y-69488992D01*
X81185000Y-70340197D01*
X81185000Y-70242998D01*
X81020625Y-70242998D01*
X81141909Y-70020960D01*
X81047070Y-69756119D01*
X80902385Y-69514869D01*
X80713414Y-69306481D01*
X80487420Y-69138963D01*
X80233087Y-69018754D01*
X80099039Y-68978096D01*
X79877000Y-69100085D01*
X79877000Y-70243000D01*
X79897000Y-70243000D01*
X79897000Y-70497000D01*
X79877000Y-70497000D01*
X79877000Y-70517000D01*
X79623000Y-70517000D01*
X79623000Y-70497000D01*
X78479376Y-70497000D01*
X78358091Y-70719040D01*
X78452930Y-70983881D01*
X78597615Y-71225131D01*
X78786586Y-71433519D01*
X79012580Y-71601037D01*
X79266913Y-71721246D01*
X79400961Y-71761904D01*
X79622998Y-71639916D01*
X79622998Y-71805000D01*
X79720198Y-71805000D01*
X78145886Y-73379312D01*
X77963335Y-73343000D01*
X77680665Y-73343000D01*
X77403426Y-73398147D01*
X77142273Y-73506320D01*
X76907241Y-73663363D01*
X76707363Y-73863241D01*
X76552000Y-74095759D01*
X76396637Y-73863241D01*
X76196759Y-73663363D01*
X75961727Y-73506320D01*
X75700574Y-73398147D01*
X75423335Y-73343000D01*
X75140665Y-73343000D01*
X74863426Y-73398147D01*
X74602273Y-73506320D01*
X74367241Y-73663363D01*
X74167363Y-73863241D01*
X74012000Y-74095759D01*
X73856637Y-73863241D01*
X73656759Y-73663363D01*
X73510000Y-73565302D01*
X73510000Y-71454909D01*
X73524463Y-71448918D01*
X73792252Y-71269987D01*
X74019987Y-71042252D01*
X74198918Y-70774463D01*
X74322168Y-70476912D01*
X74385000Y-70161033D01*
X74385000Y-70020960D01*
X78358091Y-70020960D01*
X78479376Y-70243000D01*
X79623000Y-70243000D01*
X79623000Y-69100085D01*
X79400961Y-68978096D01*
X79266913Y-69018754D01*
X79012580Y-69138963D01*
X78786586Y-69306481D01*
X78597615Y-69514869D01*
X78452930Y-69756119D01*
X78358091Y-70020960D01*
X74385000Y-70020960D01*
X74385000Y-69838967D01*
X74322168Y-69523088D01*
X74198918Y-69225537D01*
X74019987Y-68957748D01*
X73792252Y-68730013D01*
X73524463Y-68551082D01*
X73226912Y-68427832D01*
X72911033Y-68365000D01*
X72588967Y-68365000D01*
X72273088Y-68427832D01*
X71975537Y-68551082D01*
X71707748Y-68730013D01*
X71480013Y-68957748D01*
X71415075Y-69054935D01*
X71385413Y-69044192D01*
X70429605Y-70000000D01*
X71385413Y-70955808D01*
X71415075Y-70945065D01*
X71480013Y-71042252D01*
X71707748Y-71269987D01*
X71975537Y-71448918D01*
X71990000Y-71454909D01*
X71990001Y-73554611D01*
X71827241Y-73663363D01*
X71627363Y-73863241D01*
X71472000Y-74095759D01*
X71316637Y-73863241D01*
X71116759Y-73663363D01*
X70881727Y-73506320D01*
X70620574Y-73398147D01*
X70343335Y-73343000D01*
X70060665Y-73343000D01*
X69878114Y-73379312D01*
X68510000Y-72011199D01*
X68510000Y-71638072D01*
X68750000Y-71638072D01*
X68874482Y-71625812D01*
X68994180Y-71589502D01*
X69104494Y-71530537D01*
X69201185Y-71451185D01*
X69280537Y-71354494D01*
X69335976Y-71250777D01*
X69389956Y-71399814D01*
X69679571Y-71540704D01*
X69991108Y-71622384D01*
X70312595Y-71641718D01*
X70631675Y-71597961D01*
X70936088Y-71492795D01*
X71110044Y-71399814D01*
X71205808Y-71135413D01*
X70250000Y-70179605D01*
X70235858Y-70193748D01*
X70056253Y-70014143D01*
X70070395Y-70000000D01*
X70056253Y-69985858D01*
X70235858Y-69806253D01*
X70250000Y-69820395D01*
X71205808Y-68864587D01*
X71110044Y-68600186D01*
X70820429Y-68459296D01*
X70508892Y-68377616D01*
X70187405Y-68358282D01*
X69868325Y-68402039D01*
X69563912Y-68507205D01*
X69389956Y-68600186D01*
X69335976Y-68749223D01*
X69280537Y-68645506D01*
X69201185Y-68548815D01*
X69104494Y-68469463D01*
X68994180Y-68410498D01*
X68874482Y-68374188D01*
X68750000Y-68361928D01*
X67010000Y-68361928D01*
X67010000Y-62564801D01*
X68674801Y-60900000D01*
X74211928Y-60900000D01*
X74211928Y-64100000D01*
X74224188Y-64224482D01*
X74260498Y-64344180D01*
X74319463Y-64454494D01*
X74398815Y-64551185D01*
X74495506Y-64630537D01*
X74605820Y-64689502D01*
X74725518Y-64725812D01*
X74850000Y-64738072D01*
X76850000Y-64738072D01*
X76974482Y-64725812D01*
X77094180Y-64689502D01*
X77204494Y-64630537D01*
X77301185Y-64551185D01*
X77380537Y-64454494D01*
X77439502Y-64344180D01*
X77475812Y-64224482D01*
X77488072Y-64100000D01*
X77488072Y-62608665D01*
X78315000Y-62608665D01*
X78315000Y-62891335D01*
X78370147Y-63168574D01*
X78478320Y-63429727D01*
X78635363Y-63664759D01*
X78835241Y-63864637D01*
X79070273Y-64021680D01*
X79331426Y-64129853D01*
X79608665Y-64185000D01*
X79891335Y-64185000D01*
X80168574Y-64129853D01*
X80429727Y-64021680D01*
X80664759Y-63864637D01*
X80864637Y-63664759D01*
X81021680Y-63429727D01*
X81129853Y-63168574D01*
X81185000Y-62891335D01*
X81185000Y-62608665D01*
X81129853Y-62331426D01*
X81021680Y-62070273D01*
X80864637Y-61835241D01*
X80664759Y-61635363D01*
X80429727Y-61478320D01*
X80168574Y-61370147D01*
X79891335Y-61315000D01*
X79608665Y-61315000D01*
X79331426Y-61370147D01*
X79070273Y-61478320D01*
X78835241Y-61635363D01*
X78635363Y-61835241D01*
X78478320Y-62070273D01*
X78370147Y-62331426D01*
X78315000Y-62608665D01*
X77488072Y-62608665D01*
X77488072Y-60900000D01*
X82011928Y-60900000D01*
X82011928Y-64100000D01*
X82024188Y-64224482D01*
X82060498Y-64344180D01*
X82119463Y-64454494D01*
X82198815Y-64551185D01*
X82295506Y-64630537D01*
X82405820Y-64689502D01*
X82525518Y-64725812D01*
X82650000Y-64738072D01*
X84650000Y-64738072D01*
X84774482Y-64725812D01*
X84894180Y-64689502D01*
X85004494Y-64630537D01*
X85101185Y-64551185D01*
X85180537Y-64454494D01*
X85239502Y-64344180D01*
X85275812Y-64224482D01*
X85288072Y-64100000D01*
X85288072Y-60900000D01*
X93211928Y-60900000D01*
X93211928Y-64100000D01*
X93224188Y-64224482D01*
X93260498Y-64344180D01*
X93319463Y-64454494D01*
X93398815Y-64551185D01*
X93495506Y-64630537D01*
X93605820Y-64689502D01*
X93725518Y-64725812D01*
X93850000Y-64738072D01*
X95850000Y-64738072D01*
X95974482Y-64725812D01*
X96094180Y-64689502D01*
X96204494Y-64630537D01*
X96301185Y-64551185D01*
X96380537Y-64454494D01*
X96439502Y-64344180D01*
X96475812Y-64224482D01*
X96488072Y-64100000D01*
X96488072Y-62608665D01*
X97315000Y-62608665D01*
X97315000Y-62891335D01*
X97370147Y-63168574D01*
X97478320Y-63429727D01*
X97635363Y-63664759D01*
X97835241Y-63864637D01*
X98070273Y-64021680D01*
X98331426Y-64129853D01*
X98608665Y-64185000D01*
X98891335Y-64185000D01*
X99168574Y-64129853D01*
X99429727Y-64021680D01*
X99664759Y-63864637D01*
X99864637Y-63664759D01*
X100021680Y-63429727D01*
X100129853Y-63168574D01*
X100185000Y-62891335D01*
X100185000Y-62608665D01*
X100129853Y-62331426D01*
X100021680Y-62070273D01*
X99864637Y-61835241D01*
X99664759Y-61635363D01*
X99429727Y-61478320D01*
X99168574Y-61370147D01*
X98891335Y-61315000D01*
X98608665Y-61315000D01*
X98331426Y-61370147D01*
X98070273Y-61478320D01*
X97835241Y-61635363D01*
X97635363Y-61835241D01*
X97478320Y-62070273D01*
X97370147Y-62331426D01*
X97315000Y-62608665D01*
X96488072Y-62608665D01*
X96488072Y-60900000D01*
X100761928Y-60900000D01*
X100761928Y-64100000D01*
X100774188Y-64224482D01*
X100810498Y-64344180D01*
X100869463Y-64454494D01*
X100948815Y-64551185D01*
X101045506Y-64630537D01*
X101155820Y-64689502D01*
X101275518Y-64725812D01*
X101400000Y-64738072D01*
X103400000Y-64738072D01*
X103524482Y-64725812D01*
X103644180Y-64689502D01*
X103754494Y-64630537D01*
X103851185Y-64551185D01*
X103930537Y-64454494D01*
X103989502Y-64344180D01*
X104025812Y-64224482D01*
X104038072Y-64100000D01*
X104038072Y-60900000D01*
X111961928Y-60900000D01*
X111961928Y-64100000D01*
X111974188Y-64224482D01*
X112010498Y-64344180D01*
X112069463Y-64454494D01*
X112148815Y-64551185D01*
X112245506Y-64630537D01*
X112355820Y-64689502D01*
X112475518Y-64725812D01*
X112600000Y-64738072D01*
X114600000Y-64738072D01*
X114724482Y-64725812D01*
X114844180Y-64689502D01*
X114954494Y-64630537D01*
X115051185Y-64551185D01*
X115130537Y-64454494D01*
X115189502Y-64344180D01*
X115225812Y-64224482D01*
X115238072Y-64100000D01*
X115238072Y-60900000D01*
X115225812Y-60775518D01*
X115189502Y-60655820D01*
X115130537Y-60545506D01*
X115051185Y-60448815D01*
X114954494Y-60369463D01*
X114844180Y-60310498D01*
X114724482Y-60274188D01*
X114600000Y-60261928D01*
X112600000Y-60261928D01*
X112475518Y-60274188D01*
X112355820Y-60310498D01*
X112245506Y-60369463D01*
X112148815Y-60448815D01*
X112069463Y-60545506D01*
X112010498Y-60655820D01*
X111974188Y-60775518D01*
X111961928Y-60900000D01*
X104038072Y-60900000D01*
X104025812Y-60775518D01*
X103989502Y-60655820D01*
X103930537Y-60545506D01*
X103851185Y-60448815D01*
X103754494Y-60369463D01*
X103644180Y-60310498D01*
X103524482Y-60274188D01*
X103400000Y-60261928D01*
X101400000Y-60261928D01*
X101275518Y-60274188D01*
X101155820Y-60310498D01*
X101045506Y-60369463D01*
X100948815Y-60448815D01*
X100869463Y-60545506D01*
X100810498Y-60655820D01*
X100774188Y-60775518D01*
X100761928Y-60900000D01*
X96488072Y-60900000D01*
X96475812Y-60775518D01*
X96439502Y-60655820D01*
X96380537Y-60545506D01*
X96301185Y-60448815D01*
X96204494Y-60369463D01*
X96094180Y-60310498D01*
X95974482Y-60274188D01*
X95850000Y-60261928D01*
X93850000Y-60261928D01*
X93725518Y-60274188D01*
X93605820Y-60310498D01*
X93495506Y-60369463D01*
X93398815Y-60448815D01*
X93319463Y-60545506D01*
X93260498Y-60655820D01*
X93224188Y-60775518D01*
X93211928Y-60900000D01*
X85288072Y-60900000D01*
X85275812Y-60775518D01*
X85239502Y-60655820D01*
X85180537Y-60545506D01*
X85101185Y-60448815D01*
X85004494Y-60369463D01*
X84894180Y-60310498D01*
X84774482Y-60274188D01*
X84650000Y-60261928D01*
X82650000Y-60261928D01*
X82525518Y-60274188D01*
X82405820Y-60310498D01*
X82295506Y-60369463D01*
X82198815Y-60448815D01*
X82119463Y-60545506D01*
X82060498Y-60655820D01*
X82024188Y-60775518D01*
X82011928Y-60900000D01*
X77488072Y-60900000D01*
X77475812Y-60775518D01*
X77439502Y-60655820D01*
X77380537Y-60545506D01*
X77301185Y-60448815D01*
X77204494Y-60369463D01*
X77094180Y-60310498D01*
X76974482Y-60274188D01*
X76850000Y-60261928D01*
X74850000Y-60261928D01*
X74725518Y-60274188D01*
X74605820Y-60310498D01*
X74495506Y-60369463D01*
X74398815Y-60448815D01*
X74319463Y-60545506D01*
X74260498Y-60655820D01*
X74224188Y-60775518D01*
X74211928Y-60900000D01*
X68674801Y-60900000D01*
X72464550Y-57110252D01*
X72588967Y-57135000D01*
X72911033Y-57135000D01*
X73226912Y-57072168D01*
X73241375Y-57066177D01*
X74186201Y-58011003D01*
X74209999Y-58040001D01*
X74238997Y-58063799D01*
X74325723Y-58134974D01*
X74457753Y-58205546D01*
X74601014Y-58249003D01*
X74712667Y-58260000D01*
X74712676Y-58260000D01*
X74749999Y-58263676D01*
X74787322Y-58260000D01*
X89712678Y-58260000D01*
X89750000Y-58263676D01*
X89787322Y-58260000D01*
X89787333Y-58260000D01*
X89898986Y-58249003D01*
X90042247Y-58205546D01*
X90174276Y-58134974D01*
X90290001Y-58040001D01*
X90313804Y-58010997D01*
X91258624Y-57066177D01*
X91273088Y-57072168D01*
X91588967Y-57135000D01*
X91911033Y-57135000D01*
X92226912Y-57072168D01*
X92241375Y-57066177D01*
X93186201Y-58011003D01*
X93209999Y-58040001D01*
X93238997Y-58063799D01*
X93325723Y-58134974D01*
X93457753Y-58205546D01*
X93601014Y-58249003D01*
X93712667Y-58260000D01*
X93712676Y-58260000D01*
X93749999Y-58263676D01*
X93787322Y-58260000D01*
X108462678Y-58260000D01*
X108500000Y-58263676D01*
X108537322Y-58260000D01*
X108537333Y-58260000D01*
X108648986Y-58249003D01*
X108792247Y-58205546D01*
X108924276Y-58134974D01*
X109040001Y-58040001D01*
X109063804Y-58010997D01*
X110008624Y-57066177D01*
X110023088Y-57072168D01*
X110338967Y-57135000D01*
X110661033Y-57135000D01*
X110976912Y-57072168D01*
X111274463Y-56948918D01*
X111542252Y-56769987D01*
X111769987Y-56542252D01*
X111948918Y-56274463D01*
X112072168Y-55976912D01*
X112135000Y-55661033D01*
X112135000Y-55338967D01*
X112072168Y-55023088D01*
X111948918Y-54725537D01*
X111769987Y-54457748D01*
X111542252Y-54230013D01*
X111274463Y-54051082D01*
X110982146Y-53930000D01*
X116246491Y-53930000D01*
X115771161Y-54405330D01*
X115351467Y-55033446D01*
X115062377Y-55731372D01*
X114915000Y-56472285D01*
X114915000Y-57227715D01*
X115062377Y-57968628D01*
X115351467Y-58666554D01*
X115771161Y-59294670D01*
X116305330Y-59828839D01*
X116933446Y-60248533D01*
X117631372Y-60537623D01*
X118372285Y-60685000D01*
X119110000Y-60685000D01*
X119110000Y-66500714D01*
X121605304Y-66500714D01*
X121609660Y-98786151D01*
X121194670Y-98371161D01*
X120566554Y-97951467D01*
X119868628Y-97662377D01*
X119127715Y-97515000D01*
X118372285Y-97515000D01*
X117631372Y-97662377D01*
X116933446Y-97951467D01*
X116305330Y-98371161D01*
X115771161Y-98905330D01*
X115351467Y-99533446D01*
X115062377Y-100231372D01*
X114915000Y-100972285D01*
X114915000Y-101727715D01*
X115062377Y-102468628D01*
X115351467Y-103166554D01*
X115771161Y-103794670D01*
X116216491Y-104240000D01*
X62033509Y-104240000D01*
X62478839Y-103794670D01*
X62898533Y-103166554D01*
X63187623Y-102468628D01*
X63335000Y-101727715D01*
X63335000Y-100972285D01*
X63285216Y-100722000D01*
X66683928Y-100722000D01*
X66696188Y-100846482D01*
X66732498Y-100966180D01*
X66791463Y-101076494D01*
X66870815Y-101173185D01*
X66967506Y-101252537D01*
X67077820Y-101311502D01*
X67197518Y-101347812D01*
X67322000Y-101360072D01*
X67936250Y-101357000D01*
X68095000Y-101198250D01*
X68095000Y-99949000D01*
X66845750Y-99949000D01*
X66687000Y-100107750D01*
X66683928Y-100722000D01*
X63285216Y-100722000D01*
X63187623Y-100231372D01*
X62898533Y-99533446D01*
X62489978Y-98922000D01*
X66683928Y-98922000D01*
X66687000Y-99536250D01*
X66845750Y-99695000D01*
X68095000Y-99695000D01*
X68095000Y-98445750D01*
X68349000Y-98445750D01*
X68349000Y-99695000D01*
X68369000Y-99695000D01*
X68369000Y-99949000D01*
X68349000Y-99949000D01*
X68349000Y-101198250D01*
X68507750Y-101357000D01*
X69122000Y-101360072D01*
X69246482Y-101347812D01*
X69366180Y-101311502D01*
X69476494Y-101252537D01*
X69573185Y-101173185D01*
X69652537Y-101076494D01*
X69711502Y-100966180D01*
X69717056Y-100947873D01*
X69783495Y-101014312D01*
X70034905Y-101182299D01*
X70314257Y-101298011D01*
X70610816Y-101357000D01*
X70913184Y-101357000D01*
X71170930Y-101305731D01*
X72484201Y-102619003D01*
X72507999Y-102648001D01*
X72623724Y-102742974D01*
X72755753Y-102813546D01*
X72899014Y-102857003D01*
X73010667Y-102868000D01*
X73010676Y-102868000D01*
X73047999Y-102871676D01*
X73085322Y-102868000D01*
X74623957Y-102868000D01*
X74727363Y-103022759D01*
X74927241Y-103222637D01*
X75162273Y-103379680D01*
X75423426Y-103487853D01*
X75700665Y-103543000D01*
X75983335Y-103543000D01*
X76260574Y-103487853D01*
X76521727Y-103379680D01*
X76756759Y-103222637D01*
X76956637Y-103022759D01*
X77113680Y-102787727D01*
X77221853Y-102526574D01*
X77277000Y-102249335D01*
X77277000Y-101966665D01*
X77221853Y-101689426D01*
X77113680Y-101428273D01*
X76956637Y-101193241D01*
X76756759Y-100993363D01*
X76521727Y-100836320D01*
X76260574Y-100728147D01*
X76229672Y-100722000D01*
X79891928Y-100722000D01*
X79904188Y-100846482D01*
X79940498Y-100966180D01*
X79999463Y-101076494D01*
X80078815Y-101173185D01*
X80175506Y-101252537D01*
X80285820Y-101311502D01*
X80405518Y-101347812D01*
X80530000Y-101360072D01*
X81144250Y-101357000D01*
X81303000Y-101198250D01*
X81303000Y-99949000D01*
X80053750Y-99949000D01*
X79895000Y-100107750D01*
X79891928Y-100722000D01*
X76229672Y-100722000D01*
X75983335Y-100673000D01*
X75700665Y-100673000D01*
X75423426Y-100728147D01*
X75162273Y-100836320D01*
X74927241Y-100993363D01*
X74727363Y-101193241D01*
X74623957Y-101348000D01*
X73362802Y-101348000D01*
X72245731Y-100230930D01*
X72297000Y-99973184D01*
X72297000Y-99670816D01*
X72238011Y-99374257D01*
X72122299Y-99094905D01*
X72006768Y-98922000D01*
X79891928Y-98922000D01*
X79895000Y-99536250D01*
X80053750Y-99695000D01*
X81303000Y-99695000D01*
X81303000Y-98445750D01*
X81557000Y-98445750D01*
X81557000Y-99695000D01*
X81577000Y-99695000D01*
X81577000Y-99949000D01*
X81557000Y-99949000D01*
X81557000Y-101198250D01*
X81715750Y-101357000D01*
X82330000Y-101360072D01*
X82454482Y-101347812D01*
X82574180Y-101311502D01*
X82684494Y-101252537D01*
X82781185Y-101173185D01*
X82860537Y-101076494D01*
X82919502Y-100966180D01*
X82925056Y-100947873D01*
X82991495Y-101014312D01*
X83242905Y-101182299D01*
X83522257Y-101298011D01*
X83818816Y-101357000D01*
X84121184Y-101357000D01*
X84378930Y-101305731D01*
X85692201Y-102619003D01*
X85715999Y-102648001D01*
X85831724Y-102742974D01*
X85963753Y-102813546D01*
X86107014Y-102857003D01*
X86218667Y-102868000D01*
X86218676Y-102868000D01*
X86255999Y-102871676D01*
X86293322Y-102868000D01*
X87831957Y-102868000D01*
X87935363Y-103022759D01*
X88135241Y-103222637D01*
X88370273Y-103379680D01*
X88631426Y-103487853D01*
X88908665Y-103543000D01*
X89191335Y-103543000D01*
X89468574Y-103487853D01*
X89729727Y-103379680D01*
X89964759Y-103222637D01*
X90164637Y-103022759D01*
X90321680Y-102787727D01*
X90429853Y-102526574D01*
X90485000Y-102249335D01*
X90485000Y-101966665D01*
X90429853Y-101689426D01*
X90321680Y-101428273D01*
X90164637Y-101193241D01*
X89964759Y-100993363D01*
X89729727Y-100836320D01*
X89468574Y-100728147D01*
X89437672Y-100722000D01*
X93099928Y-100722000D01*
X93112188Y-100846482D01*
X93148498Y-100966180D01*
X93207463Y-101076494D01*
X93286815Y-101173185D01*
X93383506Y-101252537D01*
X93493820Y-101311502D01*
X93613518Y-101347812D01*
X93738000Y-101360072D01*
X94352250Y-101357000D01*
X94511000Y-101198250D01*
X94511000Y-99949000D01*
X93261750Y-99949000D01*
X93103000Y-100107750D01*
X93099928Y-100722000D01*
X89437672Y-100722000D01*
X89191335Y-100673000D01*
X88908665Y-100673000D01*
X88631426Y-100728147D01*
X88370273Y-100836320D01*
X88135241Y-100993363D01*
X87935363Y-101193241D01*
X87831957Y-101348000D01*
X86570802Y-101348000D01*
X85453731Y-100230930D01*
X85505000Y-99973184D01*
X85505000Y-99670816D01*
X85446011Y-99374257D01*
X85330299Y-99094905D01*
X85214768Y-98922000D01*
X93099928Y-98922000D01*
X93103000Y-99536250D01*
X93261750Y-99695000D01*
X94511000Y-99695000D01*
X94511000Y-98445750D01*
X94765000Y-98445750D01*
X94765000Y-99695000D01*
X94785000Y-99695000D01*
X94785000Y-99949000D01*
X94765000Y-99949000D01*
X94765000Y-101198250D01*
X94923750Y-101357000D01*
X95538000Y-101360072D01*
X95662482Y-101347812D01*
X95782180Y-101311502D01*
X95892494Y-101252537D01*
X95989185Y-101173185D01*
X96068537Y-101076494D01*
X96127502Y-100966180D01*
X96133056Y-100947873D01*
X96199495Y-101014312D01*
X96450905Y-101182299D01*
X96730257Y-101298011D01*
X97026816Y-101357000D01*
X97329184Y-101357000D01*
X97586930Y-101305731D01*
X98900201Y-102619003D01*
X98923999Y-102648001D01*
X99039724Y-102742974D01*
X99171753Y-102813546D01*
X99315014Y-102857003D01*
X99426667Y-102868000D01*
X99426676Y-102868000D01*
X99463999Y-102871676D01*
X99501322Y-102868000D01*
X101039957Y-102868000D01*
X101143363Y-103022759D01*
X101343241Y-103222637D01*
X101578273Y-103379680D01*
X101839426Y-103487853D01*
X102116665Y-103543000D01*
X102399335Y-103543000D01*
X102676574Y-103487853D01*
X102937727Y-103379680D01*
X103172759Y-103222637D01*
X103372637Y-103022759D01*
X103529680Y-102787727D01*
X103637853Y-102526574D01*
X103693000Y-102249335D01*
X103693000Y-101966665D01*
X103637853Y-101689426D01*
X103529680Y-101428273D01*
X103372637Y-101193241D01*
X103172759Y-100993363D01*
X102937727Y-100836320D01*
X102676574Y-100728147D01*
X102399335Y-100673000D01*
X102116665Y-100673000D01*
X101839426Y-100728147D01*
X101578273Y-100836320D01*
X101343241Y-100993363D01*
X101143363Y-101193241D01*
X101039957Y-101348000D01*
X99778802Y-101348000D01*
X98661731Y-100230930D01*
X98713000Y-99973184D01*
X98713000Y-99670816D01*
X98654011Y-99374257D01*
X98538299Y-99094905D01*
X98370312Y-98843495D01*
X98156505Y-98629688D01*
X97905095Y-98461701D01*
X97625743Y-98345989D01*
X97329184Y-98287000D01*
X97026816Y-98287000D01*
X96730257Y-98345989D01*
X96450905Y-98461701D01*
X96199495Y-98629688D01*
X96133056Y-98696127D01*
X96127502Y-98677820D01*
X96068537Y-98567506D01*
X95989185Y-98470815D01*
X95892494Y-98391463D01*
X95782180Y-98332498D01*
X95662482Y-98296188D01*
X95538000Y-98283928D01*
X94923750Y-98287000D01*
X94765000Y-98445750D01*
X94511000Y-98445750D01*
X94352250Y-98287000D01*
X93738000Y-98283928D01*
X93613518Y-98296188D01*
X93493820Y-98332498D01*
X93383506Y-98391463D01*
X93286815Y-98470815D01*
X93207463Y-98567506D01*
X93148498Y-98677820D01*
X93112188Y-98797518D01*
X93099928Y-98922000D01*
X85214768Y-98922000D01*
X85162312Y-98843495D01*
X84948505Y-98629688D01*
X84697095Y-98461701D01*
X84417743Y-98345989D01*
X84121184Y-98287000D01*
X83818816Y-98287000D01*
X83522257Y-98345989D01*
X83242905Y-98461701D01*
X82991495Y-98629688D01*
X82925056Y-98696127D01*
X82919502Y-98677820D01*
X82860537Y-98567506D01*
X82781185Y-98470815D01*
X82684494Y-98391463D01*
X82574180Y-98332498D01*
X82454482Y-98296188D01*
X82330000Y-98283928D01*
X81715750Y-98287000D01*
X81557000Y-98445750D01*
X81303000Y-98445750D01*
X81144250Y-98287000D01*
X80530000Y-98283928D01*
X80405518Y-98296188D01*
X80285820Y-98332498D01*
X80175506Y-98391463D01*
X80078815Y-98470815D01*
X79999463Y-98567506D01*
X79940498Y-98677820D01*
X79904188Y-98797518D01*
X79891928Y-98922000D01*
X72006768Y-98922000D01*
X71954312Y-98843495D01*
X71740505Y-98629688D01*
X71489095Y-98461701D01*
X71209743Y-98345989D01*
X70913184Y-98287000D01*
X70610816Y-98287000D01*
X70314257Y-98345989D01*
X70034905Y-98461701D01*
X69783495Y-98629688D01*
X69717056Y-98696127D01*
X69711502Y-98677820D01*
X69652537Y-98567506D01*
X69573185Y-98470815D01*
X69476494Y-98391463D01*
X69366180Y-98332498D01*
X69246482Y-98296188D01*
X69122000Y-98283928D01*
X68507750Y-98287000D01*
X68349000Y-98445750D01*
X68095000Y-98445750D01*
X67936250Y-98287000D01*
X67322000Y-98283928D01*
X67197518Y-98296188D01*
X67077820Y-98332498D01*
X66967506Y-98391463D01*
X66870815Y-98470815D01*
X66791463Y-98567506D01*
X66732498Y-98677820D01*
X66696188Y-98797518D01*
X66683928Y-98922000D01*
X62489978Y-98922000D01*
X62478839Y-98905330D01*
X61944670Y-98371161D01*
X61316554Y-97951467D01*
X60618628Y-97662377D01*
X59877715Y-97515000D01*
X59122285Y-97515000D01*
X58381372Y-97662377D01*
X57683446Y-97951467D01*
X57055330Y-98371161D01*
X56580000Y-98846491D01*
X56580000Y-89218000D01*
X58603928Y-89218000D01*
X58603928Y-90818000D01*
X58616188Y-90942482D01*
X58652498Y-91062180D01*
X58711463Y-91172494D01*
X58790815Y-91269185D01*
X58887506Y-91348537D01*
X58997820Y-91407502D01*
X59117518Y-91443812D01*
X59242000Y-91456072D01*
X60842000Y-91456072D01*
X60966482Y-91443812D01*
X61086180Y-91407502D01*
X61196494Y-91348537D01*
X61293185Y-91269185D01*
X61372537Y-91172494D01*
X61431502Y-91062180D01*
X61467812Y-90942482D01*
X61468643Y-90934039D01*
X61667241Y-91132637D01*
X61902273Y-91289680D01*
X62163426Y-91397853D01*
X62440665Y-91453000D01*
X62723335Y-91453000D01*
X63000574Y-91397853D01*
X63261727Y-91289680D01*
X63496759Y-91132637D01*
X63618694Y-91010702D01*
X64308903Y-91010702D01*
X64380486Y-91254671D01*
X64635996Y-91375571D01*
X64910184Y-91444300D01*
X65192512Y-91458217D01*
X65472130Y-91416787D01*
X65738292Y-91321603D01*
X65863514Y-91254671D01*
X65935097Y-91010702D01*
X66848903Y-91010702D01*
X66920486Y-91254671D01*
X67175996Y-91375571D01*
X67450184Y-91444300D01*
X67732512Y-91458217D01*
X68012130Y-91416787D01*
X68278292Y-91321603D01*
X68403514Y-91254671D01*
X68475097Y-91010702D01*
X67662000Y-90197605D01*
X66848903Y-91010702D01*
X65935097Y-91010702D01*
X65122000Y-90197605D01*
X64308903Y-91010702D01*
X63618694Y-91010702D01*
X63696637Y-90932759D01*
X63852915Y-90698872D01*
X63885329Y-90759514D01*
X64129298Y-90831097D01*
X64942395Y-90018000D01*
X65301605Y-90018000D01*
X66114702Y-90831097D01*
X66358671Y-90759514D01*
X66389971Y-90693364D01*
X66425329Y-90759514D01*
X66669298Y-90831097D01*
X67482395Y-90018000D01*
X66669298Y-89204903D01*
X66425329Y-89276486D01*
X66394029Y-89342636D01*
X66358671Y-89276486D01*
X66114702Y-89204903D01*
X65301605Y-90018000D01*
X64942395Y-90018000D01*
X64129298Y-89204903D01*
X63885329Y-89276486D01*
X63854806Y-89340992D01*
X63853680Y-89338273D01*
X63696637Y-89103241D01*
X63618694Y-89025298D01*
X64308903Y-89025298D01*
X65122000Y-89838395D01*
X65935097Y-89025298D01*
X66848903Y-89025298D01*
X67662000Y-89838395D01*
X68475097Y-89025298D01*
X68403514Y-88781329D01*
X68148004Y-88660429D01*
X67873816Y-88591700D01*
X67591488Y-88577783D01*
X67311870Y-88619213D01*
X67045708Y-88714397D01*
X66920486Y-88781329D01*
X66848903Y-89025298D01*
X65935097Y-89025298D01*
X65863514Y-88781329D01*
X65608004Y-88660429D01*
X65333816Y-88591700D01*
X65051488Y-88577783D01*
X64771870Y-88619213D01*
X64505708Y-88714397D01*
X64380486Y-88781329D01*
X64308903Y-89025298D01*
X63618694Y-89025298D01*
X63496759Y-88903363D01*
X63261727Y-88746320D01*
X63000574Y-88638147D01*
X62723335Y-88583000D01*
X62551801Y-88583000D01*
X68569811Y-82564991D01*
X76580206Y-82564991D01*
X70525887Y-88619312D01*
X70343335Y-88583000D01*
X70060665Y-88583000D01*
X69783426Y-88638147D01*
X69522273Y-88746320D01*
X69287241Y-88903363D01*
X69087363Y-89103241D01*
X68931085Y-89337128D01*
X68898671Y-89276486D01*
X68654702Y-89204903D01*
X67841605Y-90018000D01*
X68654702Y-90831097D01*
X68898671Y-90759514D01*
X68929194Y-90695008D01*
X68930320Y-90697727D01*
X69087363Y-90932759D01*
X69287241Y-91132637D01*
X69522273Y-91289680D01*
X69783426Y-91397853D01*
X70060665Y-91453000D01*
X70343335Y-91453000D01*
X70620574Y-91397853D01*
X70881727Y-91289680D01*
X71116759Y-91132637D01*
X71316637Y-90932759D01*
X71472000Y-90700241D01*
X71627363Y-90932759D01*
X71827241Y-91132637D01*
X72062273Y-91289680D01*
X72323426Y-91397853D01*
X72600665Y-91453000D01*
X72883335Y-91453000D01*
X73160574Y-91397853D01*
X73421727Y-91289680D01*
X73656759Y-91132637D01*
X73856637Y-90932759D01*
X74012000Y-90700241D01*
X74167363Y-90932759D01*
X74367241Y-91132637D01*
X74522000Y-91236044D01*
X74522001Y-93890668D01*
X74518324Y-93928000D01*
X74518786Y-93932688D01*
X74462147Y-94069426D01*
X74407000Y-94346665D01*
X74407000Y-94629335D01*
X74462147Y-94906574D01*
X74570320Y-95167727D01*
X74727363Y-95402759D01*
X74927241Y-95602637D01*
X75162273Y-95759680D01*
X75423426Y-95867853D01*
X75700665Y-95923000D01*
X75983335Y-95923000D01*
X76260574Y-95867853D01*
X76521727Y-95759680D01*
X76756759Y-95602637D01*
X76956637Y-95402759D01*
X77113680Y-95167727D01*
X77221853Y-94906574D01*
X77277000Y-94629335D01*
X77277000Y-94346665D01*
X77221853Y-94069426D01*
X77113680Y-93808273D01*
X76956637Y-93573241D01*
X76756759Y-93373363D01*
X76521727Y-93216320D01*
X76260574Y-93108147D01*
X76042000Y-93064669D01*
X76042000Y-91236043D01*
X76196759Y-91132637D01*
X76396637Y-90932759D01*
X76552000Y-90700241D01*
X76707363Y-90932759D01*
X76907241Y-91132637D01*
X77142273Y-91289680D01*
X77403426Y-91397853D01*
X77680665Y-91453000D01*
X77963335Y-91453000D01*
X78240574Y-91397853D01*
X78342735Y-91355536D01*
X81986201Y-94999003D01*
X82009999Y-95028001D01*
X82038997Y-95051799D01*
X82125724Y-95122974D01*
X82257753Y-95193546D01*
X82401014Y-95237003D01*
X82550000Y-95251677D01*
X82587333Y-95248000D01*
X87831957Y-95248000D01*
X87935363Y-95402759D01*
X88135241Y-95602637D01*
X88370273Y-95759680D01*
X88631426Y-95867853D01*
X88908665Y-95923000D01*
X89191335Y-95923000D01*
X89468574Y-95867853D01*
X89729727Y-95759680D01*
X89964759Y-95602637D01*
X90164637Y-95402759D01*
X90321680Y-95167727D01*
X90429853Y-94906574D01*
X90485000Y-94629335D01*
X90485000Y-94346665D01*
X90440509Y-94122999D01*
X100818198Y-94122999D01*
X100859312Y-94164113D01*
X100823000Y-94346665D01*
X100823000Y-94629335D01*
X100878147Y-94906574D01*
X100986320Y-95167727D01*
X101143363Y-95402759D01*
X101343241Y-95602637D01*
X101578273Y-95759680D01*
X101839426Y-95867853D01*
X102116665Y-95923000D01*
X102399335Y-95923000D01*
X102676574Y-95867853D01*
X102937727Y-95759680D01*
X103172759Y-95602637D01*
X103372637Y-95402759D01*
X103529680Y-95167727D01*
X103637853Y-94906574D01*
X103693000Y-94629335D01*
X103693000Y-94346665D01*
X103637853Y-94069426D01*
X103529680Y-93808273D01*
X103372637Y-93573241D01*
X103172759Y-93373363D01*
X102937727Y-93216320D01*
X102676574Y-93108147D01*
X102399335Y-93053000D01*
X102116665Y-93053000D01*
X101934113Y-93089312D01*
X101696803Y-92852001D01*
X101673000Y-92822998D01*
X101557275Y-92728025D01*
X101425246Y-92657453D01*
X101281985Y-92613996D01*
X101170332Y-92602999D01*
X101170321Y-92602999D01*
X101132999Y-92599323D01*
X101095677Y-92602999D01*
X84021801Y-92602999D01*
X82871802Y-91453000D01*
X83043335Y-91453000D01*
X83320574Y-91397853D01*
X83581727Y-91289680D01*
X83816759Y-91132637D01*
X84016637Y-90932759D01*
X84172000Y-90700241D01*
X84327363Y-90932759D01*
X84527241Y-91132637D01*
X84762273Y-91289680D01*
X85023426Y-91397853D01*
X85300665Y-91453000D01*
X85583335Y-91453000D01*
X85860574Y-91397853D01*
X86121727Y-91289680D01*
X86356759Y-91132637D01*
X86556637Y-90932759D01*
X86712000Y-90700241D01*
X86867363Y-90932759D01*
X87067241Y-91132637D01*
X87302273Y-91289680D01*
X87563426Y-91397853D01*
X87840665Y-91453000D01*
X88123335Y-91453000D01*
X88400574Y-91397853D01*
X88661727Y-91289680D01*
X88896759Y-91132637D01*
X89096637Y-90932759D01*
X89200043Y-90778000D01*
X97644678Y-90778000D01*
X97682000Y-90781676D01*
X97719322Y-90778000D01*
X97719333Y-90778000D01*
X97830986Y-90767003D01*
X97974247Y-90723546D01*
X98106276Y-90652974D01*
X98222001Y-90558001D01*
X98245803Y-90528998D01*
X98260608Y-90514193D01*
X110925000Y-90514193D01*
X110925000Y-90865807D01*
X110993596Y-91210665D01*
X111128153Y-91535515D01*
X111323500Y-91827871D01*
X111572129Y-92076500D01*
X111864485Y-92271847D01*
X112189335Y-92406404D01*
X112534193Y-92475000D01*
X112885807Y-92475000D01*
X113230665Y-92406404D01*
X113555515Y-92271847D01*
X113847871Y-92076500D01*
X114096500Y-91827871D01*
X114291847Y-91535515D01*
X114426404Y-91210665D01*
X114495000Y-90865807D01*
X114495000Y-90514193D01*
X114481822Y-90447944D01*
X114699334Y-90665456D01*
X115069489Y-90912786D01*
X115480782Y-91083149D01*
X115917409Y-91170000D01*
X116362591Y-91170000D01*
X116799218Y-91083149D01*
X117210511Y-90912786D01*
X117580666Y-90665456D01*
X117895456Y-90350666D01*
X118142786Y-89980511D01*
X118313149Y-89569218D01*
X118400000Y-89132591D01*
X118400000Y-88687409D01*
X118313149Y-88250782D01*
X118142786Y-87839489D01*
X117895456Y-87469334D01*
X117580666Y-87154544D01*
X117210511Y-86907214D01*
X116799218Y-86736851D01*
X116362591Y-86650000D01*
X115917409Y-86650000D01*
X115480782Y-86736851D01*
X115069489Y-86907214D01*
X114699334Y-87154544D01*
X114384544Y-87469334D01*
X114137214Y-87839489D01*
X113966851Y-88250782D01*
X113880000Y-88687409D01*
X113880000Y-89132591D01*
X113930415Y-89386044D01*
X113847871Y-89303500D01*
X113555515Y-89108153D01*
X113230665Y-88973596D01*
X112885807Y-88905000D01*
X112534193Y-88905000D01*
X112189335Y-88973596D01*
X111864485Y-89108153D01*
X111572129Y-89303500D01*
X111323500Y-89552129D01*
X111128153Y-89844485D01*
X110993596Y-90169335D01*
X110925000Y-90514193D01*
X98260608Y-90514193D01*
X98633592Y-90141210D01*
X98853740Y-90185000D01*
X99146260Y-90185000D01*
X99433158Y-90127932D01*
X99703411Y-90015990D01*
X99946632Y-89853475D01*
X100153475Y-89646632D01*
X100315990Y-89403411D01*
X100427932Y-89133158D01*
X100485000Y-88846260D01*
X100485000Y-88553740D01*
X100431544Y-88284999D01*
X106305679Y-88284999D01*
X106343001Y-88288675D01*
X106380323Y-88284999D01*
X106380334Y-88284999D01*
X106491987Y-88274002D01*
X106635248Y-88230545D01*
X106767277Y-88159973D01*
X106883002Y-88065000D01*
X106906805Y-88035996D01*
X110484178Y-84458623D01*
X110563723Y-84678832D01*
X110624140Y-84791863D01*
X110863007Y-84857388D01*
X111640395Y-84080000D01*
X111626253Y-84065858D01*
X111805858Y-83886253D01*
X111820000Y-83900395D01*
X111834143Y-83886253D01*
X112013748Y-84065858D01*
X111999605Y-84080000D01*
X112013748Y-84094143D01*
X111834143Y-84273748D01*
X111820000Y-84259605D01*
X111216910Y-84862695D01*
X111163957Y-84884629D01*
X110937114Y-85036201D01*
X110744201Y-85229114D01*
X110592629Y-85455957D01*
X110488225Y-85708011D01*
X110435000Y-85975589D01*
X110435000Y-86248411D01*
X110488225Y-86515989D01*
X110592629Y-86768043D01*
X110744201Y-86994886D01*
X110937114Y-87187799D01*
X111163957Y-87339371D01*
X111416011Y-87443775D01*
X111683589Y-87497000D01*
X111956411Y-87497000D01*
X112223989Y-87443775D01*
X112476043Y-87339371D01*
X112702886Y-87187799D01*
X112895799Y-86994886D01*
X113047371Y-86768043D01*
X113151775Y-86515989D01*
X113171354Y-86417562D01*
X113196011Y-86427775D01*
X113463589Y-86481000D01*
X113736411Y-86481000D01*
X114003989Y-86427775D01*
X114256043Y-86323371D01*
X114482886Y-86171799D01*
X114675799Y-85978886D01*
X114827371Y-85752043D01*
X114931775Y-85499989D01*
X114985000Y-85232411D01*
X114985000Y-84959589D01*
X114931775Y-84692011D01*
X114827371Y-84439957D01*
X114675799Y-84213114D01*
X114542685Y-84080000D01*
X114675799Y-83946886D01*
X114827371Y-83720043D01*
X114931775Y-83467989D01*
X114985000Y-83200411D01*
X114985000Y-82927589D01*
X114956167Y-82782635D01*
X115711004Y-82027798D01*
X115740001Y-82004001D01*
X115834974Y-81888276D01*
X115905546Y-81756247D01*
X115949003Y-81612986D01*
X115960000Y-81501333D01*
X115960000Y-81501325D01*
X115963676Y-81464000D01*
X115960000Y-81426675D01*
X115960000Y-78552331D01*
X115963677Y-78514998D01*
X115959245Y-78470000D01*
X116362591Y-78470000D01*
X116799218Y-78383149D01*
X117210511Y-78212786D01*
X117580666Y-77965456D01*
X117895456Y-77650666D01*
X118142786Y-77280511D01*
X118313149Y-76869218D01*
X118400000Y-76432591D01*
X118400000Y-75987409D01*
X118313149Y-75550782D01*
X118142786Y-75139489D01*
X117895456Y-74769334D01*
X117580666Y-74454544D01*
X117210511Y-74207214D01*
X116799218Y-74036851D01*
X116362591Y-73950000D01*
X115917409Y-73950000D01*
X115480782Y-74036851D01*
X115069489Y-74207214D01*
X114699334Y-74454544D01*
X114481822Y-74672056D01*
X114495000Y-74605807D01*
X114495000Y-74254193D01*
X114426404Y-73909335D01*
X114291847Y-73584485D01*
X114096500Y-73292129D01*
X113847871Y-73043500D01*
X113555515Y-72848153D01*
X113230665Y-72713596D01*
X112885807Y-72645000D01*
X112534193Y-72645000D01*
X112189335Y-72713596D01*
X111864485Y-72848153D01*
X111572129Y-73043500D01*
X111323500Y-73292129D01*
X111128153Y-73584485D01*
X110993596Y-73909335D01*
X110925000Y-74254193D01*
X110925000Y-74605807D01*
X110993596Y-74950665D01*
X111128153Y-75275515D01*
X111323500Y-75567871D01*
X111572129Y-75816500D01*
X111864485Y-76011847D01*
X112189335Y-76146404D01*
X112534193Y-76215000D01*
X112885807Y-76215000D01*
X113230665Y-76146404D01*
X113555515Y-76011847D01*
X113847871Y-75816500D01*
X113930415Y-75733956D01*
X113880000Y-75987409D01*
X113880000Y-76432591D01*
X113966851Y-76869218D01*
X114089367Y-77164999D01*
X107612334Y-77164999D01*
X107575001Y-77161322D01*
X107537668Y-77164999D01*
X107426015Y-77175996D01*
X107282754Y-77219453D01*
X107150725Y-77290025D01*
X107035000Y-77384998D01*
X107011202Y-77413996D01*
X102930198Y-81495001D01*
X100431544Y-81495001D01*
X100485000Y-81226260D01*
X100485000Y-80933740D01*
X100427932Y-80646842D01*
X100315990Y-80376589D01*
X100153475Y-80133368D01*
X99946632Y-79926525D01*
X99764466Y-79804805D01*
X99881355Y-79735178D01*
X100097588Y-79540269D01*
X100271641Y-79306920D01*
X100396825Y-79044099D01*
X100441476Y-78896890D01*
X100320155Y-78667000D01*
X99127000Y-78667000D01*
X99127000Y-78687000D01*
X98873000Y-78687000D01*
X98873000Y-78667000D01*
X97679845Y-78667000D01*
X97558524Y-78896890D01*
X97603175Y-79044099D01*
X97728359Y-79306920D01*
X97902412Y-79540269D01*
X98118645Y-79735178D01*
X98235534Y-79804805D01*
X98053368Y-79926525D01*
X97846525Y-80133368D01*
X97684010Y-80376589D01*
X97572068Y-80646842D01*
X97515000Y-80933740D01*
X97515000Y-81044991D01*
X68292334Y-81044991D01*
X68255009Y-81041315D01*
X68217684Y-81044991D01*
X68217676Y-81044991D01*
X68106023Y-81055988D01*
X67962762Y-81099445D01*
X67830733Y-81170017D01*
X67715008Y-81264990D01*
X67691210Y-81293988D01*
X60405271Y-88579928D01*
X59242000Y-88579928D01*
X59117518Y-88592188D01*
X58997820Y-88628498D01*
X58887506Y-88687463D01*
X58790815Y-88766815D01*
X58711463Y-88863506D01*
X58652498Y-88973820D01*
X58616188Y-89093518D01*
X58603928Y-89218000D01*
X56580000Y-89218000D01*
X56580000Y-74636665D01*
X58607000Y-74636665D01*
X58607000Y-74919335D01*
X58662147Y-75196574D01*
X58770320Y-75457727D01*
X58927363Y-75692759D01*
X59127241Y-75892637D01*
X59362273Y-76049680D01*
X59623426Y-76157853D01*
X59900665Y-76213000D01*
X60183335Y-76213000D01*
X60460574Y-76157853D01*
X60721727Y-76049680D01*
X60956759Y-75892637D01*
X61078694Y-75770702D01*
X61768903Y-75770702D01*
X61840486Y-76014671D01*
X62095996Y-76135571D01*
X62370184Y-76204300D01*
X62652512Y-76218217D01*
X62932130Y-76176787D01*
X63198292Y-76081603D01*
X63323514Y-76014671D01*
X63395097Y-75770702D01*
X62582000Y-74957605D01*
X61768903Y-75770702D01*
X61078694Y-75770702D01*
X61156637Y-75692759D01*
X61312915Y-75458872D01*
X61345329Y-75519514D01*
X61589298Y-75591097D01*
X62402395Y-74778000D01*
X61589298Y-73964903D01*
X61345329Y-74036486D01*
X61314806Y-74100992D01*
X61313680Y-74098273D01*
X61156637Y-73863241D01*
X61078694Y-73785298D01*
X61768903Y-73785298D01*
X62582000Y-74598395D01*
X63395097Y-73785298D01*
X63323514Y-73541329D01*
X63068004Y-73420429D01*
X62793816Y-73351700D01*
X62511488Y-73337783D01*
X62231870Y-73379213D01*
X61965708Y-73474397D01*
X61840486Y-73541329D01*
X61768903Y-73785298D01*
X61078694Y-73785298D01*
X60956759Y-73663363D01*
X60721727Y-73506320D01*
X60460574Y-73398147D01*
X60183335Y-73343000D01*
X59900665Y-73343000D01*
X59623426Y-73398147D01*
X59362273Y-73506320D01*
X59127241Y-73663363D01*
X58927363Y-73863241D01*
X58770320Y-74098273D01*
X58662147Y-74359426D01*
X58607000Y-74636665D01*
X56580000Y-74636665D01*
X56580000Y-70719040D01*
X59858091Y-70719040D01*
X59952930Y-70983881D01*
X60097615Y-71225131D01*
X60286586Y-71433519D01*
X60512580Y-71601037D01*
X60766913Y-71721246D01*
X60900961Y-71761904D01*
X61123000Y-71639915D01*
X61123000Y-70497000D01*
X61377000Y-70497000D01*
X61377000Y-71639915D01*
X61599039Y-71761904D01*
X61733087Y-71721246D01*
X61987420Y-71601037D01*
X62213414Y-71433519D01*
X62402385Y-71225131D01*
X62547070Y-70983881D01*
X62641909Y-70719040D01*
X62520624Y-70497000D01*
X61377000Y-70497000D01*
X61123000Y-70497000D01*
X59979376Y-70497000D01*
X59858091Y-70719040D01*
X56580000Y-70719040D01*
X56580000Y-70020960D01*
X59858091Y-70020960D01*
X59979376Y-70243000D01*
X61123000Y-70243000D01*
X61123000Y-69100085D01*
X61377000Y-69100085D01*
X61377000Y-70243000D01*
X62520624Y-70243000D01*
X62641909Y-70020960D01*
X62547070Y-69756119D01*
X62402385Y-69514869D01*
X62213414Y-69306481D01*
X61987420Y-69138963D01*
X61733087Y-69018754D01*
X61599039Y-68978096D01*
X61377000Y-69100085D01*
X61123000Y-69100085D01*
X60900961Y-68978096D01*
X60766913Y-69018754D01*
X60512580Y-69138963D01*
X60286586Y-69306481D01*
X60097615Y-69514869D01*
X59952930Y-69756119D01*
X59858091Y-70020960D01*
X56580000Y-70020960D01*
X56580000Y-62608665D01*
X59815000Y-62608665D01*
X59815000Y-62891335D01*
X59870147Y-63168574D01*
X59978320Y-63429727D01*
X60135363Y-63664759D01*
X60335241Y-63864637D01*
X60570273Y-64021680D01*
X60831426Y-64129853D01*
X61108665Y-64185000D01*
X61391335Y-64185000D01*
X61668574Y-64129853D01*
X61929727Y-64021680D01*
X62164759Y-63864637D01*
X62364637Y-63664759D01*
X62521680Y-63429727D01*
X62629853Y-63168574D01*
X62685000Y-62891335D01*
X62685000Y-62608665D01*
X62629853Y-62331426D01*
X62521680Y-62070273D01*
X62364637Y-61835241D01*
X62164759Y-61635363D01*
X61929727Y-61478320D01*
X61668574Y-61370147D01*
X61391335Y-61315000D01*
X61108665Y-61315000D01*
X60831426Y-61370147D01*
X60570273Y-61478320D01*
X60335241Y-61635363D01*
X60135363Y-61835241D01*
X59978320Y-62070273D01*
X59870147Y-62331426D01*
X59815000Y-62608665D01*
X56580000Y-62608665D01*
X56580000Y-59353509D01*
X57055330Y-59828839D01*
X57683446Y-60248533D01*
X58381372Y-60537623D01*
X59122285Y-60685000D01*
X59877715Y-60685000D01*
X60618628Y-60537623D01*
X61316554Y-60248533D01*
X61944670Y-59828839D01*
X62478839Y-59294670D01*
X62898533Y-58666554D01*
X63187623Y-57968628D01*
X63335000Y-57227715D01*
X63335000Y-56472285D01*
X63187623Y-55731372D01*
X62898533Y-55033446D01*
X62478839Y-54405330D01*
X62003509Y-53930000D01*
X67267854Y-53930000D01*
X66975537Y-54051082D01*
%TA.AperFunction,Conductor*%
D30*
G36*
X66975537Y-54051082D02*
G01*
X66707748Y-54230013D01*
X66480013Y-54457748D01*
X66301082Y-54725537D01*
X66177832Y-55023088D01*
X66115000Y-55338967D01*
X66115000Y-55661033D01*
X66177832Y-55976912D01*
X66301082Y-56274463D01*
X66480013Y-56542252D01*
X66707748Y-56769987D01*
X66975537Y-56948918D01*
X67273088Y-57072168D01*
X67588967Y-57135000D01*
X67911033Y-57135000D01*
X68226912Y-57072168D01*
X68524463Y-56948918D01*
X68792252Y-56769987D01*
X69019987Y-56542252D01*
X69198918Y-56274463D01*
X69322168Y-55976912D01*
X69385000Y-55661033D01*
X69385000Y-55338967D01*
X69322168Y-55023088D01*
X69198918Y-54725537D01*
X69019987Y-54457748D01*
X68792252Y-54230013D01*
X68524463Y-54051082D01*
X68232146Y-53930000D01*
X72267854Y-53930000D01*
X71975537Y-54051082D01*
X71707748Y-54230013D01*
X71480013Y-54457748D01*
X71301082Y-54725537D01*
X71177832Y-55023088D01*
X71115000Y-55338967D01*
X71115000Y-55661033D01*
X71177832Y-55976912D01*
X71257046Y-56168152D01*
X66288072Y-61137127D01*
X66288072Y-60900000D01*
X66275812Y-60775518D01*
X66239502Y-60655820D01*
X66180537Y-60545506D01*
X66101185Y-60448815D01*
X66004494Y-60369463D01*
X65894180Y-60310498D01*
X65774482Y-60274188D01*
X65650000Y-60261928D01*
X63650000Y-60261928D01*
X63525518Y-60274188D01*
X63405820Y-60310498D01*
X63295506Y-60369463D01*
X63198815Y-60448815D01*
X63119463Y-60545506D01*
X63060498Y-60655820D01*
X63024188Y-60775518D01*
X63011928Y-60900000D01*
X63011928Y-64100000D01*
X63024188Y-64224482D01*
X63060498Y-64344180D01*
X63119463Y-64454494D01*
X63198815Y-64551185D01*
X63295506Y-64630537D01*
X63405820Y-64689502D01*
X63525518Y-64725812D01*
X63650000Y-64738072D01*
X65490000Y-64738072D01*
X65490001Y-73328668D01*
X65486324Y-73366000D01*
X65488469Y-73387783D01*
X65263335Y-73343000D01*
X64980665Y-73343000D01*
X64703426Y-73398147D01*
X64442273Y-73506320D01*
X64207241Y-73663363D01*
X64007363Y-73863241D01*
X63851085Y-74097128D01*
X63818671Y-74036486D01*
X63574702Y-73964903D01*
X62761605Y-74778000D01*
X63574702Y-75591097D01*
X63818671Y-75519514D01*
X63849194Y-75455008D01*
X63850320Y-75457727D01*
X64007363Y-75692759D01*
X64207241Y-75892637D01*
X64442273Y-76049680D01*
X64703426Y-76157853D01*
X64980665Y-76213000D01*
X65263335Y-76213000D01*
X65445887Y-76176688D01*
X68130201Y-78861003D01*
X68153999Y-78890001D01*
X68269724Y-78984974D01*
X68401753Y-79055546D01*
X68545014Y-79099003D01*
X68656667Y-79110000D01*
X68656677Y-79110000D01*
X68694000Y-79113676D01*
X68731323Y-79110000D01*
X91852913Y-79110000D01*
X91864188Y-79224482D01*
X91900498Y-79344180D01*
X91959463Y-79454494D01*
X92038815Y-79551185D01*
X92135506Y-79630537D01*
X92245820Y-79689502D01*
X92365518Y-79725812D01*
X92490000Y-79738072D01*
X93990000Y-79738072D01*
X94114482Y-79725812D01*
X94234180Y-79689502D01*
X94344494Y-79630537D01*
X94441185Y-79551185D01*
X94520537Y-79454494D01*
X94579502Y-79344180D01*
X94615812Y-79224482D01*
X94628072Y-79100000D01*
X94628072Y-77600000D01*
X94615812Y-77475518D01*
X94579502Y-77355820D01*
X94520537Y-77245506D01*
X94441185Y-77148815D01*
X94344494Y-77069463D01*
X94234180Y-77010498D01*
X94114482Y-76974188D01*
X93990000Y-76961928D01*
X92490000Y-76961928D01*
X92365518Y-76974188D01*
X92245820Y-77010498D01*
X92135506Y-77069463D01*
X92038815Y-77148815D01*
X91959463Y-77245506D01*
X91900498Y-77355820D01*
X91864188Y-77475518D01*
X91852913Y-77590000D01*
X69008802Y-77590000D01*
X67631802Y-76213000D01*
X67803335Y-76213000D01*
X67985886Y-76176688D01*
X68320201Y-76511003D01*
X68343999Y-76540001D01*
X68372997Y-76563799D01*
X68459723Y-76634974D01*
X68591753Y-76705546D01*
X68735014Y-76749003D01*
X68846667Y-76760000D01*
X68846677Y-76760000D01*
X68884000Y-76763676D01*
X68921323Y-76760000D01*
X97511928Y-76760000D01*
X97511928Y-76850000D01*
X97524188Y-76974482D01*
X97560498Y-77094180D01*
X97619463Y-77204494D01*
X97698815Y-77301185D01*
X97795506Y-77380537D01*
X97905820Y-77439502D01*
X97986466Y-77463966D01*
X97902412Y-77539731D01*
X97728359Y-77773080D01*
X97603175Y-78035901D01*
X97558524Y-78183110D01*
X97679845Y-78413000D01*
X98873000Y-78413000D01*
X98873000Y-78393000D01*
X99127000Y-78393000D01*
X99127000Y-78413000D01*
X100320155Y-78413000D01*
X100441476Y-78183110D01*
X100396825Y-78035901D01*
X100271641Y-77773080D01*
X100097588Y-77539731D01*
X100013534Y-77463966D01*
X100094180Y-77439502D01*
X100204494Y-77380537D01*
X100301185Y-77301185D01*
X100380537Y-77204494D01*
X100439502Y-77094180D01*
X100475812Y-76974482D01*
X100488072Y-76850000D01*
X100488072Y-75150000D01*
X100475812Y-75025518D01*
X100439502Y-74905820D01*
X100380537Y-74795506D01*
X100301185Y-74698815D01*
X100204494Y-74619463D01*
X100094180Y-74560498D01*
X99974482Y-74524188D01*
X99850000Y-74511928D01*
X98150000Y-74511928D01*
X98025518Y-74524188D01*
X97905820Y-74560498D01*
X97795506Y-74619463D01*
X97698815Y-74698815D01*
X97619463Y-74795506D01*
X97560498Y-74905820D01*
X97524188Y-75025518D01*
X97511928Y-75150000D01*
X97511928Y-75240000D01*
X89343865Y-75240000D01*
X89361853Y-75196574D01*
X89417000Y-74919335D01*
X89417000Y-74636665D01*
X89380688Y-74454114D01*
X90574803Y-73260000D01*
X107962678Y-73260000D01*
X108000000Y-73263676D01*
X108037322Y-73260000D01*
X108037333Y-73260000D01*
X108148986Y-73249003D01*
X108292247Y-73205546D01*
X108424276Y-73134974D01*
X108540001Y-73040001D01*
X108563804Y-73010997D01*
X110008625Y-71566177D01*
X110023088Y-71572168D01*
X110338967Y-71635000D01*
X110661033Y-71635000D01*
X110976912Y-71572168D01*
X111274463Y-71448918D01*
X111542252Y-71269987D01*
X111769987Y-71042252D01*
X111948918Y-70774463D01*
X112072168Y-70476912D01*
X112135000Y-70161033D01*
X112135000Y-69838967D01*
X112072168Y-69523088D01*
X111948918Y-69225537D01*
X111769987Y-68957748D01*
X111542252Y-68730013D01*
X111274463Y-68551082D01*
X110976912Y-68427832D01*
X110661033Y-68365000D01*
X110338967Y-68365000D01*
X110023088Y-68427832D01*
X109725537Y-68551082D01*
X109457748Y-68730013D01*
X109230013Y-68957748D01*
X109165075Y-69054935D01*
X109135413Y-69044192D01*
X108179605Y-70000000D01*
X108193748Y-70014143D01*
X108014143Y-70193748D01*
X108000000Y-70179605D01*
X107985858Y-70193748D01*
X107806253Y-70014143D01*
X107820395Y-70000000D01*
X107806253Y-69985858D01*
X107985858Y-69806253D01*
X108000000Y-69820395D01*
X108955808Y-68864587D01*
X108860044Y-68600186D01*
X108570429Y-68459296D01*
X108258892Y-68377616D01*
X107937405Y-68358282D01*
X107618325Y-68402039D01*
X107313912Y-68507205D01*
X107139956Y-68600186D01*
X107085976Y-68749223D01*
X107030537Y-68645506D01*
X106951185Y-68548815D01*
X106854494Y-68469463D01*
X106744180Y-68410498D01*
X106624482Y-68374188D01*
X106500000Y-68361928D01*
X104500000Y-68361928D01*
X104375518Y-68374188D01*
X104255820Y-68410498D01*
X104145506Y-68469463D01*
X104048815Y-68548815D01*
X103969463Y-68645506D01*
X103910498Y-68755820D01*
X103874188Y-68875518D01*
X103861928Y-69000000D01*
X103861928Y-70563271D01*
X103410188Y-71015011D01*
X100028400Y-71015011D01*
X100047070Y-70983881D01*
X100141909Y-70719040D01*
X100020624Y-70497000D01*
X98877000Y-70497000D01*
X98877000Y-70517000D01*
X98623000Y-70517000D01*
X98623000Y-70497000D01*
X97479376Y-70497000D01*
X97358091Y-70719040D01*
X97452930Y-70983881D01*
X97471600Y-71015011D01*
X93038189Y-71015011D01*
X93198918Y-70774463D01*
X93322168Y-70476912D01*
X93385000Y-70161033D01*
X93385000Y-70020960D01*
X97358091Y-70020960D01*
X97479376Y-70243000D01*
X98623000Y-70243000D01*
X98623000Y-69100085D01*
X98877000Y-69100085D01*
X98877000Y-70243000D01*
X100020624Y-70243000D01*
X100141909Y-70020960D01*
X100047070Y-69756119D01*
X99902385Y-69514869D01*
X99713414Y-69306481D01*
X99487420Y-69138963D01*
X99233087Y-69018754D01*
X99099039Y-68978096D01*
X98877000Y-69100085D01*
X98623000Y-69100085D01*
X98400961Y-68978096D01*
X98266913Y-69018754D01*
X98012580Y-69138963D01*
X97786586Y-69306481D01*
X97597615Y-69514869D01*
X97452930Y-69756119D01*
X97358091Y-70020960D01*
X93385000Y-70020960D01*
X93385000Y-69838967D01*
X93322168Y-69523088D01*
X93198918Y-69225537D01*
X93019987Y-68957748D01*
X92792252Y-68730013D01*
X92524463Y-68551082D01*
X92226912Y-68427832D01*
X91911033Y-68365000D01*
X91588967Y-68365000D01*
X91273088Y-68427832D01*
X90975537Y-68551082D01*
X90707748Y-68730013D01*
X90480013Y-68957748D01*
X90415075Y-69054935D01*
X90385413Y-69044192D01*
X89429605Y-70000000D01*
X89443748Y-70014143D01*
X89264143Y-70193748D01*
X89250000Y-70179605D01*
X89235858Y-70193748D01*
X89056253Y-70014143D01*
X89070395Y-70000000D01*
X89056253Y-69985858D01*
X89235858Y-69806253D01*
X89250000Y-69820395D01*
X90205808Y-68864587D01*
X90110044Y-68600186D01*
X89820429Y-68459296D01*
X89508892Y-68377616D01*
X89187405Y-68358282D01*
X88868325Y-68402039D01*
X88563912Y-68507205D01*
X88389956Y-68600186D01*
X88335976Y-68749223D01*
X88280537Y-68645506D01*
X88201185Y-68548815D01*
X88104494Y-68469463D01*
X87994180Y-68410498D01*
X87874482Y-68374188D01*
X87750000Y-68361928D01*
X85750000Y-68361928D01*
X85625518Y-68374188D01*
X85505820Y-68410498D01*
X85395506Y-68469463D01*
X85298815Y-68548815D01*
X85219463Y-68645506D01*
X85160498Y-68755820D01*
X85124188Y-68875518D01*
X85111928Y-69000000D01*
X85111928Y-69240000D01*
X82637322Y-69240000D01*
X82599999Y-69236324D01*
X82562676Y-69240000D01*
X82562667Y-69240000D01*
X82451014Y-69250997D01*
X82307753Y-69294454D01*
X82175724Y-69365026D01*
X82175722Y-69365027D01*
X82175723Y-69365027D01*
X82088996Y-69436201D01*
X82088992Y-69436205D01*
X82059999Y-69459999D01*
X82036205Y-69488992D01*
X81185000Y-70340197D01*
X81185000Y-70242998D01*
X81020625Y-70242998D01*
X81141909Y-70020960D01*
X81047070Y-69756119D01*
X80902385Y-69514869D01*
X80713414Y-69306481D01*
X80487420Y-69138963D01*
X80233087Y-69018754D01*
X80099039Y-68978096D01*
X79877000Y-69100085D01*
X79877000Y-70243000D01*
X79897000Y-70243000D01*
X79897000Y-70497000D01*
X79877000Y-70497000D01*
X79877000Y-70517000D01*
X79623000Y-70517000D01*
X79623000Y-70497000D01*
X78479376Y-70497000D01*
X78358091Y-70719040D01*
X78452930Y-70983881D01*
X78597615Y-71225131D01*
X78786586Y-71433519D01*
X79012580Y-71601037D01*
X79266913Y-71721246D01*
X79400961Y-71761904D01*
X79622998Y-71639916D01*
X79622998Y-71805000D01*
X79720198Y-71805000D01*
X78145886Y-73379312D01*
X77963335Y-73343000D01*
X77680665Y-73343000D01*
X77403426Y-73398147D01*
X77142273Y-73506320D01*
X76907241Y-73663363D01*
X76707363Y-73863241D01*
X76552000Y-74095759D01*
X76396637Y-73863241D01*
X76196759Y-73663363D01*
X75961727Y-73506320D01*
X75700574Y-73398147D01*
X75423335Y-73343000D01*
X75140665Y-73343000D01*
X74863426Y-73398147D01*
X74602273Y-73506320D01*
X74367241Y-73663363D01*
X74167363Y-73863241D01*
X74012000Y-74095759D01*
X73856637Y-73863241D01*
X73656759Y-73663363D01*
X73510000Y-73565302D01*
X73510000Y-71454909D01*
X73524463Y-71448918D01*
X73792252Y-71269987D01*
X74019987Y-71042252D01*
X74198918Y-70774463D01*
X74322168Y-70476912D01*
X74385000Y-70161033D01*
X74385000Y-70020960D01*
X78358091Y-70020960D01*
X78479376Y-70243000D01*
X79623000Y-70243000D01*
X79623000Y-69100085D01*
X79400961Y-68978096D01*
X79266913Y-69018754D01*
X79012580Y-69138963D01*
X78786586Y-69306481D01*
X78597615Y-69514869D01*
X78452930Y-69756119D01*
X78358091Y-70020960D01*
X74385000Y-70020960D01*
X74385000Y-69838967D01*
X74322168Y-69523088D01*
X74198918Y-69225537D01*
X74019987Y-68957748D01*
X73792252Y-68730013D01*
X73524463Y-68551082D01*
X73226912Y-68427832D01*
X72911033Y-68365000D01*
X72588967Y-68365000D01*
X72273088Y-68427832D01*
X71975537Y-68551082D01*
X71707748Y-68730013D01*
X71480013Y-68957748D01*
X71415075Y-69054935D01*
X71385413Y-69044192D01*
X70429605Y-70000000D01*
X71385413Y-70955808D01*
X71415075Y-70945065D01*
X71480013Y-71042252D01*
X71707748Y-71269987D01*
X71975537Y-71448918D01*
X71990000Y-71454909D01*
X71990001Y-73554611D01*
X71827241Y-73663363D01*
X71627363Y-73863241D01*
X71472000Y-74095759D01*
X71316637Y-73863241D01*
X71116759Y-73663363D01*
X70881727Y-73506320D01*
X70620574Y-73398147D01*
X70343335Y-73343000D01*
X70060665Y-73343000D01*
X69878114Y-73379312D01*
X68510000Y-72011199D01*
X68510000Y-71638072D01*
X68750000Y-71638072D01*
X68874482Y-71625812D01*
X68994180Y-71589502D01*
X69104494Y-71530537D01*
X69201185Y-71451185D01*
X69280537Y-71354494D01*
X69335976Y-71250777D01*
X69389956Y-71399814D01*
X69679571Y-71540704D01*
X69991108Y-71622384D01*
X70312595Y-71641718D01*
X70631675Y-71597961D01*
X70936088Y-71492795D01*
X71110044Y-71399814D01*
X71205808Y-71135413D01*
X70250000Y-70179605D01*
X70235858Y-70193748D01*
X70056253Y-70014143D01*
X70070395Y-70000000D01*
X70056253Y-69985858D01*
X70235858Y-69806253D01*
X70250000Y-69820395D01*
X71205808Y-68864587D01*
X71110044Y-68600186D01*
X70820429Y-68459296D01*
X70508892Y-68377616D01*
X70187405Y-68358282D01*
X69868325Y-68402039D01*
X69563912Y-68507205D01*
X69389956Y-68600186D01*
X69335976Y-68749223D01*
X69280537Y-68645506D01*
X69201185Y-68548815D01*
X69104494Y-68469463D01*
X68994180Y-68410498D01*
X68874482Y-68374188D01*
X68750000Y-68361928D01*
X67010000Y-68361928D01*
X67010000Y-62564801D01*
X68674801Y-60900000D01*
X74211928Y-60900000D01*
X74211928Y-64100000D01*
X74224188Y-64224482D01*
X74260498Y-64344180D01*
X74319463Y-64454494D01*
X74398815Y-64551185D01*
X74495506Y-64630537D01*
X74605820Y-64689502D01*
X74725518Y-64725812D01*
X74850000Y-64738072D01*
X76850000Y-64738072D01*
X76974482Y-64725812D01*
X77094180Y-64689502D01*
X77204494Y-64630537D01*
X77301185Y-64551185D01*
X77380537Y-64454494D01*
X77439502Y-64344180D01*
X77475812Y-64224482D01*
X77488072Y-64100000D01*
X77488072Y-62608665D01*
X78315000Y-62608665D01*
X78315000Y-62891335D01*
X78370147Y-63168574D01*
X78478320Y-63429727D01*
X78635363Y-63664759D01*
X78835241Y-63864637D01*
X79070273Y-64021680D01*
X79331426Y-64129853D01*
X79608665Y-64185000D01*
X79891335Y-64185000D01*
X80168574Y-64129853D01*
X80429727Y-64021680D01*
X80664759Y-63864637D01*
X80864637Y-63664759D01*
X81021680Y-63429727D01*
X81129853Y-63168574D01*
X81185000Y-62891335D01*
X81185000Y-62608665D01*
X81129853Y-62331426D01*
X81021680Y-62070273D01*
X80864637Y-61835241D01*
X80664759Y-61635363D01*
X80429727Y-61478320D01*
X80168574Y-61370147D01*
X79891335Y-61315000D01*
X79608665Y-61315000D01*
X79331426Y-61370147D01*
X79070273Y-61478320D01*
X78835241Y-61635363D01*
X78635363Y-61835241D01*
X78478320Y-62070273D01*
X78370147Y-62331426D01*
X78315000Y-62608665D01*
X77488072Y-62608665D01*
X77488072Y-60900000D01*
X82011928Y-60900000D01*
X82011928Y-64100000D01*
X82024188Y-64224482D01*
X82060498Y-64344180D01*
X82119463Y-64454494D01*
X82198815Y-64551185D01*
X82295506Y-64630537D01*
X82405820Y-64689502D01*
X82525518Y-64725812D01*
X82650000Y-64738072D01*
X84650000Y-64738072D01*
X84774482Y-64725812D01*
X84894180Y-64689502D01*
X85004494Y-64630537D01*
X85101185Y-64551185D01*
X85180537Y-64454494D01*
X85239502Y-64344180D01*
X85275812Y-64224482D01*
X85288072Y-64100000D01*
X85288072Y-60900000D01*
X93211928Y-60900000D01*
X93211928Y-64100000D01*
X93224188Y-64224482D01*
X93260498Y-64344180D01*
X93319463Y-64454494D01*
X93398815Y-64551185D01*
X93495506Y-64630537D01*
X93605820Y-64689502D01*
X93725518Y-64725812D01*
X93850000Y-64738072D01*
X95850000Y-64738072D01*
X95974482Y-64725812D01*
X96094180Y-64689502D01*
X96204494Y-64630537D01*
X96301185Y-64551185D01*
X96380537Y-64454494D01*
X96439502Y-64344180D01*
X96475812Y-64224482D01*
X96488072Y-64100000D01*
X96488072Y-62608665D01*
X97315000Y-62608665D01*
X97315000Y-62891335D01*
X97370147Y-63168574D01*
X97478320Y-63429727D01*
X97635363Y-63664759D01*
X97835241Y-63864637D01*
X98070273Y-64021680D01*
X98331426Y-64129853D01*
X98608665Y-64185000D01*
X98891335Y-64185000D01*
X99168574Y-64129853D01*
X99429727Y-64021680D01*
X99664759Y-63864637D01*
X99864637Y-63664759D01*
X100021680Y-63429727D01*
X100129853Y-63168574D01*
X100185000Y-62891335D01*
X100185000Y-62608665D01*
X100129853Y-62331426D01*
X100021680Y-62070273D01*
X99864637Y-61835241D01*
X99664759Y-61635363D01*
X99429727Y-61478320D01*
X99168574Y-61370147D01*
X98891335Y-61315000D01*
X98608665Y-61315000D01*
X98331426Y-61370147D01*
X98070273Y-61478320D01*
X97835241Y-61635363D01*
X97635363Y-61835241D01*
X97478320Y-62070273D01*
X97370147Y-62331426D01*
X97315000Y-62608665D01*
X96488072Y-62608665D01*
X96488072Y-60900000D01*
X100761928Y-60900000D01*
X100761928Y-64100000D01*
X100774188Y-64224482D01*
X100810498Y-64344180D01*
X100869463Y-64454494D01*
X100948815Y-64551185D01*
X101045506Y-64630537D01*
X101155820Y-64689502D01*
X101275518Y-64725812D01*
X101400000Y-64738072D01*
X103400000Y-64738072D01*
X103524482Y-64725812D01*
X103644180Y-64689502D01*
X103754494Y-64630537D01*
X103851185Y-64551185D01*
X103930537Y-64454494D01*
X103989502Y-64344180D01*
X104025812Y-64224482D01*
X104038072Y-64100000D01*
X104038072Y-60900000D01*
X111961928Y-60900000D01*
X111961928Y-64100000D01*
X111974188Y-64224482D01*
X112010498Y-64344180D01*
X112069463Y-64454494D01*
X112148815Y-64551185D01*
X112245506Y-64630537D01*
X112355820Y-64689502D01*
X112475518Y-64725812D01*
X112600000Y-64738072D01*
X114600000Y-64738072D01*
X114724482Y-64725812D01*
X114844180Y-64689502D01*
X114954494Y-64630537D01*
X115051185Y-64551185D01*
X115130537Y-64454494D01*
X115189502Y-64344180D01*
X115225812Y-64224482D01*
X115238072Y-64100000D01*
X115238072Y-60900000D01*
X115225812Y-60775518D01*
X115189502Y-60655820D01*
X115130537Y-60545506D01*
X115051185Y-60448815D01*
X114954494Y-60369463D01*
X114844180Y-60310498D01*
X114724482Y-60274188D01*
X114600000Y-60261928D01*
X112600000Y-60261928D01*
X112475518Y-60274188D01*
X112355820Y-60310498D01*
X112245506Y-60369463D01*
X112148815Y-60448815D01*
X112069463Y-60545506D01*
X112010498Y-60655820D01*
X111974188Y-60775518D01*
X111961928Y-60900000D01*
X104038072Y-60900000D01*
X104025812Y-60775518D01*
X103989502Y-60655820D01*
X103930537Y-60545506D01*
X103851185Y-60448815D01*
X103754494Y-60369463D01*
X103644180Y-60310498D01*
X103524482Y-60274188D01*
X103400000Y-60261928D01*
X101400000Y-60261928D01*
X101275518Y-60274188D01*
X101155820Y-60310498D01*
X101045506Y-60369463D01*
X100948815Y-60448815D01*
X100869463Y-60545506D01*
X100810498Y-60655820D01*
X100774188Y-60775518D01*
X100761928Y-60900000D01*
X96488072Y-60900000D01*
X96475812Y-60775518D01*
X96439502Y-60655820D01*
X96380537Y-60545506D01*
X96301185Y-60448815D01*
X96204494Y-60369463D01*
X96094180Y-60310498D01*
X95974482Y-60274188D01*
X95850000Y-60261928D01*
X93850000Y-60261928D01*
X93725518Y-60274188D01*
X93605820Y-60310498D01*
X93495506Y-60369463D01*
X93398815Y-60448815D01*
X93319463Y-60545506D01*
X93260498Y-60655820D01*
X93224188Y-60775518D01*
X93211928Y-60900000D01*
X85288072Y-60900000D01*
X85275812Y-60775518D01*
X85239502Y-60655820D01*
X85180537Y-60545506D01*
X85101185Y-60448815D01*
X85004494Y-60369463D01*
X84894180Y-60310498D01*
X84774482Y-60274188D01*
X84650000Y-60261928D01*
X82650000Y-60261928D01*
X82525518Y-60274188D01*
X82405820Y-60310498D01*
X82295506Y-60369463D01*
X82198815Y-60448815D01*
X82119463Y-60545506D01*
X82060498Y-60655820D01*
X82024188Y-60775518D01*
X82011928Y-60900000D01*
X77488072Y-60900000D01*
X77475812Y-60775518D01*
X77439502Y-60655820D01*
X77380537Y-60545506D01*
X77301185Y-60448815D01*
X77204494Y-60369463D01*
X77094180Y-60310498D01*
X76974482Y-60274188D01*
X76850000Y-60261928D01*
X74850000Y-60261928D01*
X74725518Y-60274188D01*
X74605820Y-60310498D01*
X74495506Y-60369463D01*
X74398815Y-60448815D01*
X74319463Y-60545506D01*
X74260498Y-60655820D01*
X74224188Y-60775518D01*
X74211928Y-60900000D01*
X68674801Y-60900000D01*
X72464550Y-57110252D01*
X72588967Y-57135000D01*
X72911033Y-57135000D01*
X73226912Y-57072168D01*
X73241375Y-57066177D01*
X74186201Y-58011003D01*
X74209999Y-58040001D01*
X74238997Y-58063799D01*
X74325723Y-58134974D01*
X74457753Y-58205546D01*
X74601014Y-58249003D01*
X74712667Y-58260000D01*
X74712676Y-58260000D01*
X74749999Y-58263676D01*
X74787322Y-58260000D01*
X89712678Y-58260000D01*
X89750000Y-58263676D01*
X89787322Y-58260000D01*
X89787333Y-58260000D01*
X89898986Y-58249003D01*
X90042247Y-58205546D01*
X90174276Y-58134974D01*
X90290001Y-58040001D01*
X90313804Y-58010997D01*
X91258624Y-57066177D01*
X91273088Y-57072168D01*
X91588967Y-57135000D01*
X91911033Y-57135000D01*
X92226912Y-57072168D01*
X92241375Y-57066177D01*
X93186201Y-58011003D01*
X93209999Y-58040001D01*
X93238997Y-58063799D01*
X93325723Y-58134974D01*
X93457753Y-58205546D01*
X93601014Y-58249003D01*
X93712667Y-58260000D01*
X93712676Y-58260000D01*
X93749999Y-58263676D01*
X93787322Y-58260000D01*
X108462678Y-58260000D01*
X108500000Y-58263676D01*
X108537322Y-58260000D01*
X108537333Y-58260000D01*
X108648986Y-58249003D01*
X108792247Y-58205546D01*
X108924276Y-58134974D01*
X109040001Y-58040001D01*
X109063804Y-58010997D01*
X110008624Y-57066177D01*
X110023088Y-57072168D01*
X110338967Y-57135000D01*
X110661033Y-57135000D01*
X110976912Y-57072168D01*
X111274463Y-56948918D01*
X111542252Y-56769987D01*
X111769987Y-56542252D01*
X111948918Y-56274463D01*
X112072168Y-55976912D01*
X112135000Y-55661033D01*
X112135000Y-55338967D01*
X112072168Y-55023088D01*
X111948918Y-54725537D01*
X111769987Y-54457748D01*
X111542252Y-54230013D01*
X111274463Y-54051082D01*
X110982146Y-53930000D01*
X116246491Y-53930000D01*
X115771161Y-54405330D01*
X115351467Y-55033446D01*
X115062377Y-55731372D01*
X114915000Y-56472285D01*
X114915000Y-57227715D01*
X115062377Y-57968628D01*
X115351467Y-58666554D01*
X115771161Y-59294670D01*
X116305330Y-59828839D01*
X116933446Y-60248533D01*
X117631372Y-60537623D01*
X118372285Y-60685000D01*
X119110000Y-60685000D01*
X119110000Y-66500714D01*
X121605304Y-66500714D01*
X121609660Y-98786151D01*
X121194670Y-98371161D01*
X120566554Y-97951467D01*
X119868628Y-97662377D01*
X119127715Y-97515000D01*
X118372285Y-97515000D01*
X117631372Y-97662377D01*
X116933446Y-97951467D01*
X116305330Y-98371161D01*
X115771161Y-98905330D01*
X115351467Y-99533446D01*
X115062377Y-100231372D01*
X114915000Y-100972285D01*
X114915000Y-101727715D01*
X115062377Y-102468628D01*
X115351467Y-103166554D01*
X115771161Y-103794670D01*
X116216491Y-104240000D01*
X62033509Y-104240000D01*
X62478839Y-103794670D01*
X62898533Y-103166554D01*
X63187623Y-102468628D01*
X63335000Y-101727715D01*
X63335000Y-100972285D01*
X63285216Y-100722000D01*
X66683928Y-100722000D01*
X66696188Y-100846482D01*
X66732498Y-100966180D01*
X66791463Y-101076494D01*
X66870815Y-101173185D01*
X66967506Y-101252537D01*
X67077820Y-101311502D01*
X67197518Y-101347812D01*
X67322000Y-101360072D01*
X67936250Y-101357000D01*
X68095000Y-101198250D01*
X68095000Y-99949000D01*
X66845750Y-99949000D01*
X66687000Y-100107750D01*
X66683928Y-100722000D01*
X63285216Y-100722000D01*
X63187623Y-100231372D01*
X62898533Y-99533446D01*
X62489978Y-98922000D01*
X66683928Y-98922000D01*
X66687000Y-99536250D01*
X66845750Y-99695000D01*
X68095000Y-99695000D01*
X68095000Y-98445750D01*
X68349000Y-98445750D01*
X68349000Y-99695000D01*
X68369000Y-99695000D01*
X68369000Y-99949000D01*
X68349000Y-99949000D01*
X68349000Y-101198250D01*
X68507750Y-101357000D01*
X69122000Y-101360072D01*
X69246482Y-101347812D01*
X69366180Y-101311502D01*
X69476494Y-101252537D01*
X69573185Y-101173185D01*
X69652537Y-101076494D01*
X69711502Y-100966180D01*
X69717056Y-100947873D01*
X69783495Y-101014312D01*
X70034905Y-101182299D01*
X70314257Y-101298011D01*
X70610816Y-101357000D01*
X70913184Y-101357000D01*
X71170930Y-101305731D01*
X72484201Y-102619003D01*
X72507999Y-102648001D01*
X72623724Y-102742974D01*
X72755753Y-102813546D01*
X72899014Y-102857003D01*
X73010667Y-102868000D01*
X73010676Y-102868000D01*
X73047999Y-102871676D01*
X73085322Y-102868000D01*
X74623957Y-102868000D01*
X74727363Y-103022759D01*
X74927241Y-103222637D01*
X75162273Y-103379680D01*
X75423426Y-103487853D01*
X75700665Y-103543000D01*
X75983335Y-103543000D01*
X76260574Y-103487853D01*
X76521727Y-103379680D01*
X76756759Y-103222637D01*
X76956637Y-103022759D01*
X77113680Y-102787727D01*
X77221853Y-102526574D01*
X77277000Y-102249335D01*
X77277000Y-101966665D01*
X77221853Y-101689426D01*
X77113680Y-101428273D01*
X76956637Y-101193241D01*
X76756759Y-100993363D01*
X76521727Y-100836320D01*
X76260574Y-100728147D01*
X76229672Y-100722000D01*
X79891928Y-100722000D01*
X79904188Y-100846482D01*
X79940498Y-100966180D01*
X79999463Y-101076494D01*
X80078815Y-101173185D01*
X80175506Y-101252537D01*
X80285820Y-101311502D01*
X80405518Y-101347812D01*
X80530000Y-101360072D01*
X81144250Y-101357000D01*
X81303000Y-101198250D01*
X81303000Y-99949000D01*
X80053750Y-99949000D01*
X79895000Y-100107750D01*
X79891928Y-100722000D01*
X76229672Y-100722000D01*
X75983335Y-100673000D01*
X75700665Y-100673000D01*
X75423426Y-100728147D01*
X75162273Y-100836320D01*
X74927241Y-100993363D01*
X74727363Y-101193241D01*
X74623957Y-101348000D01*
X73362802Y-101348000D01*
X72245731Y-100230930D01*
X72297000Y-99973184D01*
X72297000Y-99670816D01*
X72238011Y-99374257D01*
X72122299Y-99094905D01*
X72006768Y-98922000D01*
X79891928Y-98922000D01*
X79895000Y-99536250D01*
X80053750Y-99695000D01*
X81303000Y-99695000D01*
X81303000Y-98445750D01*
X81557000Y-98445750D01*
X81557000Y-99695000D01*
X81577000Y-99695000D01*
X81577000Y-99949000D01*
X81557000Y-99949000D01*
X81557000Y-101198250D01*
X81715750Y-101357000D01*
X82330000Y-101360072D01*
X82454482Y-101347812D01*
X82574180Y-101311502D01*
X82684494Y-101252537D01*
X82781185Y-101173185D01*
X82860537Y-101076494D01*
X82919502Y-100966180D01*
X82925056Y-100947873D01*
X82991495Y-101014312D01*
X83242905Y-101182299D01*
X83522257Y-101298011D01*
X83818816Y-101357000D01*
X84121184Y-101357000D01*
X84378930Y-101305731D01*
X85692201Y-102619003D01*
X85715999Y-102648001D01*
X85831724Y-102742974D01*
X85963753Y-102813546D01*
X86107014Y-102857003D01*
X86218667Y-102868000D01*
X86218676Y-102868000D01*
X86255999Y-102871676D01*
X86293322Y-102868000D01*
X87831957Y-102868000D01*
X87935363Y-103022759D01*
X88135241Y-103222637D01*
X88370273Y-103379680D01*
X88631426Y-103487853D01*
X88908665Y-103543000D01*
X89191335Y-103543000D01*
X89468574Y-103487853D01*
X89729727Y-103379680D01*
X89964759Y-103222637D01*
X90164637Y-103022759D01*
X90321680Y-102787727D01*
X90429853Y-102526574D01*
X90485000Y-102249335D01*
X90485000Y-101966665D01*
X90429853Y-101689426D01*
X90321680Y-101428273D01*
X90164637Y-101193241D01*
X89964759Y-100993363D01*
X89729727Y-100836320D01*
X89468574Y-100728147D01*
X89437672Y-100722000D01*
X93099928Y-100722000D01*
X93112188Y-100846482D01*
X93148498Y-100966180D01*
X93207463Y-101076494D01*
X93286815Y-101173185D01*
X93383506Y-101252537D01*
X93493820Y-101311502D01*
X93613518Y-101347812D01*
X93738000Y-101360072D01*
X94352250Y-101357000D01*
X94511000Y-101198250D01*
X94511000Y-99949000D01*
X93261750Y-99949000D01*
X93103000Y-100107750D01*
X93099928Y-100722000D01*
X89437672Y-100722000D01*
X89191335Y-100673000D01*
X88908665Y-100673000D01*
X88631426Y-100728147D01*
X88370273Y-100836320D01*
X88135241Y-100993363D01*
X87935363Y-101193241D01*
X87831957Y-101348000D01*
X86570802Y-101348000D01*
X85453731Y-100230930D01*
X85505000Y-99973184D01*
X85505000Y-99670816D01*
X85446011Y-99374257D01*
X85330299Y-99094905D01*
X85214768Y-98922000D01*
X93099928Y-98922000D01*
X93103000Y-99536250D01*
X93261750Y-99695000D01*
X94511000Y-99695000D01*
X94511000Y-98445750D01*
X94765000Y-98445750D01*
X94765000Y-99695000D01*
X94785000Y-99695000D01*
X94785000Y-99949000D01*
X94765000Y-99949000D01*
X94765000Y-101198250D01*
X94923750Y-101357000D01*
X95538000Y-101360072D01*
X95662482Y-101347812D01*
X95782180Y-101311502D01*
X95892494Y-101252537D01*
X95989185Y-101173185D01*
X96068537Y-101076494D01*
X96127502Y-100966180D01*
X96133056Y-100947873D01*
X96199495Y-101014312D01*
X96450905Y-101182299D01*
X96730257Y-101298011D01*
X97026816Y-101357000D01*
X97329184Y-101357000D01*
X97586930Y-101305731D01*
X98900201Y-102619003D01*
X98923999Y-102648001D01*
X99039724Y-102742974D01*
X99171753Y-102813546D01*
X99315014Y-102857003D01*
X99426667Y-102868000D01*
X99426676Y-102868000D01*
X99463999Y-102871676D01*
X99501322Y-102868000D01*
X101039957Y-102868000D01*
X101143363Y-103022759D01*
X101343241Y-103222637D01*
X101578273Y-103379680D01*
X101839426Y-103487853D01*
X102116665Y-103543000D01*
X102399335Y-103543000D01*
X102676574Y-103487853D01*
X102937727Y-103379680D01*
X103172759Y-103222637D01*
X103372637Y-103022759D01*
X103529680Y-102787727D01*
X103637853Y-102526574D01*
X103693000Y-102249335D01*
X103693000Y-101966665D01*
X103637853Y-101689426D01*
X103529680Y-101428273D01*
X103372637Y-101193241D01*
X103172759Y-100993363D01*
X102937727Y-100836320D01*
X102676574Y-100728147D01*
X102399335Y-100673000D01*
X102116665Y-100673000D01*
X101839426Y-100728147D01*
X101578273Y-100836320D01*
X101343241Y-100993363D01*
X101143363Y-101193241D01*
X101039957Y-101348000D01*
X99778802Y-101348000D01*
X98661731Y-100230930D01*
X98713000Y-99973184D01*
X98713000Y-99670816D01*
X98654011Y-99374257D01*
X98538299Y-99094905D01*
X98370312Y-98843495D01*
X98156505Y-98629688D01*
X97905095Y-98461701D01*
X97625743Y-98345989D01*
X97329184Y-98287000D01*
X97026816Y-98287000D01*
X96730257Y-98345989D01*
X96450905Y-98461701D01*
X96199495Y-98629688D01*
X96133056Y-98696127D01*
X96127502Y-98677820D01*
X96068537Y-98567506D01*
X95989185Y-98470815D01*
X95892494Y-98391463D01*
X95782180Y-98332498D01*
X95662482Y-98296188D01*
X95538000Y-98283928D01*
X94923750Y-98287000D01*
X94765000Y-98445750D01*
X94511000Y-98445750D01*
X94352250Y-98287000D01*
X93738000Y-98283928D01*
X93613518Y-98296188D01*
X93493820Y-98332498D01*
X93383506Y-98391463D01*
X93286815Y-98470815D01*
X93207463Y-98567506D01*
X93148498Y-98677820D01*
X93112188Y-98797518D01*
X93099928Y-98922000D01*
X85214768Y-98922000D01*
X85162312Y-98843495D01*
X84948505Y-98629688D01*
X84697095Y-98461701D01*
X84417743Y-98345989D01*
X84121184Y-98287000D01*
X83818816Y-98287000D01*
X83522257Y-98345989D01*
X83242905Y-98461701D01*
X82991495Y-98629688D01*
X82925056Y-98696127D01*
X82919502Y-98677820D01*
X82860537Y-98567506D01*
X82781185Y-98470815D01*
X82684494Y-98391463D01*
X82574180Y-98332498D01*
X82454482Y-98296188D01*
X82330000Y-98283928D01*
X81715750Y-98287000D01*
X81557000Y-98445750D01*
X81303000Y-98445750D01*
X81144250Y-98287000D01*
X80530000Y-98283928D01*
X80405518Y-98296188D01*
X80285820Y-98332498D01*
X80175506Y-98391463D01*
X80078815Y-98470815D01*
X79999463Y-98567506D01*
X79940498Y-98677820D01*
X79904188Y-98797518D01*
X79891928Y-98922000D01*
X72006768Y-98922000D01*
X71954312Y-98843495D01*
X71740505Y-98629688D01*
X71489095Y-98461701D01*
X71209743Y-98345989D01*
X70913184Y-98287000D01*
X70610816Y-98287000D01*
X70314257Y-98345989D01*
X70034905Y-98461701D01*
X69783495Y-98629688D01*
X69717056Y-98696127D01*
X69711502Y-98677820D01*
X69652537Y-98567506D01*
X69573185Y-98470815D01*
X69476494Y-98391463D01*
X69366180Y-98332498D01*
X69246482Y-98296188D01*
X69122000Y-98283928D01*
X68507750Y-98287000D01*
X68349000Y-98445750D01*
X68095000Y-98445750D01*
X67936250Y-98287000D01*
X67322000Y-98283928D01*
X67197518Y-98296188D01*
X67077820Y-98332498D01*
X66967506Y-98391463D01*
X66870815Y-98470815D01*
X66791463Y-98567506D01*
X66732498Y-98677820D01*
X66696188Y-98797518D01*
X66683928Y-98922000D01*
X62489978Y-98922000D01*
X62478839Y-98905330D01*
X61944670Y-98371161D01*
X61316554Y-97951467D01*
X60618628Y-97662377D01*
X59877715Y-97515000D01*
X59122285Y-97515000D01*
X58381372Y-97662377D01*
X57683446Y-97951467D01*
X57055330Y-98371161D01*
X56580000Y-98846491D01*
X56580000Y-89218000D01*
X58603928Y-89218000D01*
X58603928Y-90818000D01*
X58616188Y-90942482D01*
X58652498Y-91062180D01*
X58711463Y-91172494D01*
X58790815Y-91269185D01*
X58887506Y-91348537D01*
X58997820Y-91407502D01*
X59117518Y-91443812D01*
X59242000Y-91456072D01*
X60842000Y-91456072D01*
X60966482Y-91443812D01*
X61086180Y-91407502D01*
X61196494Y-91348537D01*
X61293185Y-91269185D01*
X61372537Y-91172494D01*
X61431502Y-91062180D01*
X61467812Y-90942482D01*
X61468643Y-90934039D01*
X61667241Y-91132637D01*
X61902273Y-91289680D01*
X62163426Y-91397853D01*
X62440665Y-91453000D01*
X62723335Y-91453000D01*
X63000574Y-91397853D01*
X63261727Y-91289680D01*
X63496759Y-91132637D01*
X63618694Y-91010702D01*
X64308903Y-91010702D01*
X64380486Y-91254671D01*
X64635996Y-91375571D01*
X64910184Y-91444300D01*
X65192512Y-91458217D01*
X65472130Y-91416787D01*
X65738292Y-91321603D01*
X65863514Y-91254671D01*
X65935097Y-91010702D01*
X66848903Y-91010702D01*
X66920486Y-91254671D01*
X67175996Y-91375571D01*
X67450184Y-91444300D01*
X67732512Y-91458217D01*
X68012130Y-91416787D01*
X68278292Y-91321603D01*
X68403514Y-91254671D01*
X68475097Y-91010702D01*
X67662000Y-90197605D01*
X66848903Y-91010702D01*
X65935097Y-91010702D01*
X65122000Y-90197605D01*
X64308903Y-91010702D01*
X63618694Y-91010702D01*
X63696637Y-90932759D01*
X63852915Y-90698872D01*
X63885329Y-90759514D01*
X64129298Y-90831097D01*
X64942395Y-90018000D01*
X65301605Y-90018000D01*
X66114702Y-90831097D01*
X66358671Y-90759514D01*
X66389971Y-90693364D01*
X66425329Y-90759514D01*
X66669298Y-90831097D01*
X67482395Y-90018000D01*
X66669298Y-89204903D01*
X66425329Y-89276486D01*
X66394029Y-89342636D01*
X66358671Y-89276486D01*
X66114702Y-89204903D01*
X65301605Y-90018000D01*
X64942395Y-90018000D01*
X64129298Y-89204903D01*
X63885329Y-89276486D01*
X63854806Y-89340992D01*
X63853680Y-89338273D01*
X63696637Y-89103241D01*
X63618694Y-89025298D01*
X64308903Y-89025298D01*
X65122000Y-89838395D01*
X65935097Y-89025298D01*
X66848903Y-89025298D01*
X67662000Y-89838395D01*
X68475097Y-89025298D01*
X68403514Y-88781329D01*
X68148004Y-88660429D01*
X67873816Y-88591700D01*
X67591488Y-88577783D01*
X67311870Y-88619213D01*
X67045708Y-88714397D01*
X66920486Y-88781329D01*
X66848903Y-89025298D01*
X65935097Y-89025298D01*
X65863514Y-88781329D01*
X65608004Y-88660429D01*
X65333816Y-88591700D01*
X65051488Y-88577783D01*
X64771870Y-88619213D01*
X64505708Y-88714397D01*
X64380486Y-88781329D01*
X64308903Y-89025298D01*
X63618694Y-89025298D01*
X63496759Y-88903363D01*
X63261727Y-88746320D01*
X63000574Y-88638147D01*
X62723335Y-88583000D01*
X62551801Y-88583000D01*
X68569811Y-82564991D01*
X76580206Y-82564991D01*
X70525887Y-88619312D01*
X70343335Y-88583000D01*
X70060665Y-88583000D01*
X69783426Y-88638147D01*
X69522273Y-88746320D01*
X69287241Y-88903363D01*
X69087363Y-89103241D01*
X68931085Y-89337128D01*
X68898671Y-89276486D01*
X68654702Y-89204903D01*
X67841605Y-90018000D01*
X68654702Y-90831097D01*
X68898671Y-90759514D01*
X68929194Y-90695008D01*
X68930320Y-90697727D01*
X69087363Y-90932759D01*
X69287241Y-91132637D01*
X69522273Y-91289680D01*
X69783426Y-91397853D01*
X70060665Y-91453000D01*
X70343335Y-91453000D01*
X70620574Y-91397853D01*
X70881727Y-91289680D01*
X71116759Y-91132637D01*
X71316637Y-90932759D01*
X71472000Y-90700241D01*
X71627363Y-90932759D01*
X71827241Y-91132637D01*
X72062273Y-91289680D01*
X72323426Y-91397853D01*
X72600665Y-91453000D01*
X72883335Y-91453000D01*
X73160574Y-91397853D01*
X73421727Y-91289680D01*
X73656759Y-91132637D01*
X73856637Y-90932759D01*
X74012000Y-90700241D01*
X74167363Y-90932759D01*
X74367241Y-91132637D01*
X74522000Y-91236044D01*
X74522001Y-93890668D01*
X74518324Y-93928000D01*
X74518786Y-93932688D01*
X74462147Y-94069426D01*
X74407000Y-94346665D01*
X74407000Y-94629335D01*
X74462147Y-94906574D01*
X74570320Y-95167727D01*
X74727363Y-95402759D01*
X74927241Y-95602637D01*
X75162273Y-95759680D01*
X75423426Y-95867853D01*
X75700665Y-95923000D01*
X75983335Y-95923000D01*
X76260574Y-95867853D01*
X76521727Y-95759680D01*
X76756759Y-95602637D01*
X76956637Y-95402759D01*
X77113680Y-95167727D01*
X77221853Y-94906574D01*
X77277000Y-94629335D01*
X77277000Y-94346665D01*
X77221853Y-94069426D01*
X77113680Y-93808273D01*
X76956637Y-93573241D01*
X76756759Y-93373363D01*
X76521727Y-93216320D01*
X76260574Y-93108147D01*
X76042000Y-93064669D01*
X76042000Y-91236043D01*
X76196759Y-91132637D01*
X76396637Y-90932759D01*
X76552000Y-90700241D01*
X76707363Y-90932759D01*
X76907241Y-91132637D01*
X77142273Y-91289680D01*
X77403426Y-91397853D01*
X77680665Y-91453000D01*
X77963335Y-91453000D01*
X78240574Y-91397853D01*
X78342735Y-91355536D01*
X81986201Y-94999003D01*
X82009999Y-95028001D01*
X82038997Y-95051799D01*
X82125724Y-95122974D01*
X82257753Y-95193546D01*
X82401014Y-95237003D01*
X82550000Y-95251677D01*
X82587333Y-95248000D01*
X87831957Y-95248000D01*
X87935363Y-95402759D01*
X88135241Y-95602637D01*
X88370273Y-95759680D01*
X88631426Y-95867853D01*
X88908665Y-95923000D01*
X89191335Y-95923000D01*
X89468574Y-95867853D01*
X89729727Y-95759680D01*
X89964759Y-95602637D01*
X90164637Y-95402759D01*
X90321680Y-95167727D01*
X90429853Y-94906574D01*
X90485000Y-94629335D01*
X90485000Y-94346665D01*
X90440509Y-94122999D01*
X100818198Y-94122999D01*
X100859312Y-94164113D01*
X100823000Y-94346665D01*
X100823000Y-94629335D01*
X100878147Y-94906574D01*
X100986320Y-95167727D01*
X101143363Y-95402759D01*
X101343241Y-95602637D01*
X101578273Y-95759680D01*
X101839426Y-95867853D01*
X102116665Y-95923000D01*
X102399335Y-95923000D01*
X102676574Y-95867853D01*
X102937727Y-95759680D01*
X103172759Y-95602637D01*
X103372637Y-95402759D01*
X103529680Y-95167727D01*
X103637853Y-94906574D01*
X103693000Y-94629335D01*
X103693000Y-94346665D01*
X103637853Y-94069426D01*
X103529680Y-93808273D01*
X103372637Y-93573241D01*
X103172759Y-93373363D01*
X102937727Y-93216320D01*
X102676574Y-93108147D01*
X102399335Y-93053000D01*
X102116665Y-93053000D01*
X101934113Y-93089312D01*
X101696803Y-92852001D01*
X101673000Y-92822998D01*
X101557275Y-92728025D01*
X101425246Y-92657453D01*
X101281985Y-92613996D01*
X101170332Y-92602999D01*
X101170321Y-92602999D01*
X101132999Y-92599323D01*
X101095677Y-92602999D01*
X84021801Y-92602999D01*
X82871802Y-91453000D01*
X83043335Y-91453000D01*
X83320574Y-91397853D01*
X83581727Y-91289680D01*
X83816759Y-91132637D01*
X84016637Y-90932759D01*
X84172000Y-90700241D01*
X84327363Y-90932759D01*
X84527241Y-91132637D01*
X84762273Y-91289680D01*
X85023426Y-91397853D01*
X85300665Y-91453000D01*
X85583335Y-91453000D01*
X85860574Y-91397853D01*
X86121727Y-91289680D01*
X86356759Y-91132637D01*
X86556637Y-90932759D01*
X86712000Y-90700241D01*
X86867363Y-90932759D01*
X87067241Y-91132637D01*
X87302273Y-91289680D01*
X87563426Y-91397853D01*
X87840665Y-91453000D01*
X88123335Y-91453000D01*
X88400574Y-91397853D01*
X88661727Y-91289680D01*
X88896759Y-91132637D01*
X89096637Y-90932759D01*
X89200043Y-90778000D01*
X97644678Y-90778000D01*
X97682000Y-90781676D01*
X97719322Y-90778000D01*
X97719333Y-90778000D01*
X97830986Y-90767003D01*
X97974247Y-90723546D01*
X98106276Y-90652974D01*
X98222001Y-90558001D01*
X98245803Y-90528998D01*
X98260608Y-90514193D01*
X110925000Y-90514193D01*
X110925000Y-90865807D01*
X110993596Y-91210665D01*
X111128153Y-91535515D01*
X111323500Y-91827871D01*
X111572129Y-92076500D01*
X111864485Y-92271847D01*
X112189335Y-92406404D01*
X112534193Y-92475000D01*
X112885807Y-92475000D01*
X113230665Y-92406404D01*
X113555515Y-92271847D01*
X113847871Y-92076500D01*
X114096500Y-91827871D01*
X114291847Y-91535515D01*
X114426404Y-91210665D01*
X114495000Y-90865807D01*
X114495000Y-90514193D01*
X114481822Y-90447944D01*
X114699334Y-90665456D01*
X115069489Y-90912786D01*
X115480782Y-91083149D01*
X115917409Y-91170000D01*
X116362591Y-91170000D01*
X116799218Y-91083149D01*
X117210511Y-90912786D01*
X117580666Y-90665456D01*
X117895456Y-90350666D01*
X118142786Y-89980511D01*
X118313149Y-89569218D01*
X118400000Y-89132591D01*
X118400000Y-88687409D01*
X118313149Y-88250782D01*
X118142786Y-87839489D01*
X117895456Y-87469334D01*
X117580666Y-87154544D01*
X117210511Y-86907214D01*
X116799218Y-86736851D01*
X116362591Y-86650000D01*
X115917409Y-86650000D01*
X115480782Y-86736851D01*
X115069489Y-86907214D01*
X114699334Y-87154544D01*
X114384544Y-87469334D01*
X114137214Y-87839489D01*
X113966851Y-88250782D01*
X113880000Y-88687409D01*
X113880000Y-89132591D01*
X113930415Y-89386044D01*
X113847871Y-89303500D01*
X113555515Y-89108153D01*
X113230665Y-88973596D01*
X112885807Y-88905000D01*
X112534193Y-88905000D01*
X112189335Y-88973596D01*
X111864485Y-89108153D01*
X111572129Y-89303500D01*
X111323500Y-89552129D01*
X111128153Y-89844485D01*
X110993596Y-90169335D01*
X110925000Y-90514193D01*
X98260608Y-90514193D01*
X98633592Y-90141210D01*
X98853740Y-90185000D01*
X99146260Y-90185000D01*
X99433158Y-90127932D01*
X99703411Y-90015990D01*
X99946632Y-89853475D01*
X100153475Y-89646632D01*
X100315990Y-89403411D01*
X100427932Y-89133158D01*
X100485000Y-88846260D01*
X100485000Y-88553740D01*
X100431544Y-88284999D01*
X106305679Y-88284999D01*
X106343001Y-88288675D01*
X106380323Y-88284999D01*
X106380334Y-88284999D01*
X106491987Y-88274002D01*
X106635248Y-88230545D01*
X106767277Y-88159973D01*
X106883002Y-88065000D01*
X106906805Y-88035996D01*
X110484178Y-84458623D01*
X110563723Y-84678832D01*
X110624140Y-84791863D01*
X110863007Y-84857388D01*
X111640395Y-84080000D01*
X111626253Y-84065858D01*
X111805858Y-83886253D01*
X111820000Y-83900395D01*
X111834143Y-83886253D01*
X112013748Y-84065858D01*
X111999605Y-84080000D01*
X112013748Y-84094143D01*
X111834143Y-84273748D01*
X111820000Y-84259605D01*
X111216910Y-84862695D01*
X111163957Y-84884629D01*
X110937114Y-85036201D01*
X110744201Y-85229114D01*
X110592629Y-85455957D01*
X110488225Y-85708011D01*
X110435000Y-85975589D01*
X110435000Y-86248411D01*
X110488225Y-86515989D01*
X110592629Y-86768043D01*
X110744201Y-86994886D01*
X110937114Y-87187799D01*
X111163957Y-87339371D01*
X111416011Y-87443775D01*
X111683589Y-87497000D01*
X111956411Y-87497000D01*
X112223989Y-87443775D01*
X112476043Y-87339371D01*
X112702886Y-87187799D01*
X112895799Y-86994886D01*
X113047371Y-86768043D01*
X113151775Y-86515989D01*
X113171354Y-86417562D01*
X113196011Y-86427775D01*
X113463589Y-86481000D01*
X113736411Y-86481000D01*
X114003989Y-86427775D01*
X114256043Y-86323371D01*
X114482886Y-86171799D01*
X114675799Y-85978886D01*
X114827371Y-85752043D01*
X114931775Y-85499989D01*
X114985000Y-85232411D01*
X114985000Y-84959589D01*
X114931775Y-84692011D01*
X114827371Y-84439957D01*
X114675799Y-84213114D01*
X114542685Y-84080000D01*
X114675799Y-83946886D01*
X114827371Y-83720043D01*
X114931775Y-83467989D01*
X114985000Y-83200411D01*
X114985000Y-82927589D01*
X114956167Y-82782635D01*
X115711004Y-82027798D01*
X115740001Y-82004001D01*
X115834974Y-81888276D01*
X115905546Y-81756247D01*
X115949003Y-81612986D01*
X115960000Y-81501333D01*
X115960000Y-81501325D01*
X115963676Y-81464000D01*
X115960000Y-81426675D01*
X115960000Y-78552331D01*
X115963677Y-78514998D01*
X115959245Y-78470000D01*
X116362591Y-78470000D01*
X116799218Y-78383149D01*
X117210511Y-78212786D01*
X117580666Y-77965456D01*
X117895456Y-77650666D01*
X118142786Y-77280511D01*
X118313149Y-76869218D01*
X118400000Y-76432591D01*
X118400000Y-75987409D01*
X118313149Y-75550782D01*
X118142786Y-75139489D01*
X117895456Y-74769334D01*
X117580666Y-74454544D01*
X117210511Y-74207214D01*
X116799218Y-74036851D01*
X116362591Y-73950000D01*
X115917409Y-73950000D01*
X115480782Y-74036851D01*
X115069489Y-74207214D01*
X114699334Y-74454544D01*
X114481822Y-74672056D01*
X114495000Y-74605807D01*
X114495000Y-74254193D01*
X114426404Y-73909335D01*
X114291847Y-73584485D01*
X114096500Y-73292129D01*
X113847871Y-73043500D01*
X113555515Y-72848153D01*
X113230665Y-72713596D01*
X112885807Y-72645000D01*
X112534193Y-72645000D01*
X112189335Y-72713596D01*
X111864485Y-72848153D01*
X111572129Y-73043500D01*
X111323500Y-73292129D01*
X111128153Y-73584485D01*
X110993596Y-73909335D01*
X110925000Y-74254193D01*
X110925000Y-74605807D01*
X110993596Y-74950665D01*
X111128153Y-75275515D01*
X111323500Y-75567871D01*
X111572129Y-75816500D01*
X111864485Y-76011847D01*
X112189335Y-76146404D01*
X112534193Y-76215000D01*
X112885807Y-76215000D01*
X113230665Y-76146404D01*
X113555515Y-76011847D01*
X113847871Y-75816500D01*
X113930415Y-75733956D01*
X113880000Y-75987409D01*
X113880000Y-76432591D01*
X113966851Y-76869218D01*
X114089367Y-77164999D01*
X107612334Y-77164999D01*
X107575001Y-77161322D01*
X107537668Y-77164999D01*
X107426015Y-77175996D01*
X107282754Y-77219453D01*
X107150725Y-77290025D01*
X107035000Y-77384998D01*
X107011202Y-77413996D01*
X102930198Y-81495001D01*
X100431544Y-81495001D01*
X100485000Y-81226260D01*
X100485000Y-80933740D01*
X100427932Y-80646842D01*
X100315990Y-80376589D01*
X100153475Y-80133368D01*
X99946632Y-79926525D01*
X99764466Y-79804805D01*
X99881355Y-79735178D01*
X100097588Y-79540269D01*
X100271641Y-79306920D01*
X100396825Y-79044099D01*
X100441476Y-78896890D01*
X100320155Y-78667000D01*
X99127000Y-78667000D01*
X99127000Y-78687000D01*
X98873000Y-78687000D01*
X98873000Y-78667000D01*
X97679845Y-78667000D01*
X97558524Y-78896890D01*
X97603175Y-79044099D01*
X97728359Y-79306920D01*
X97902412Y-79540269D01*
X98118645Y-79735178D01*
X98235534Y-79804805D01*
X98053368Y-79926525D01*
X97846525Y-80133368D01*
X97684010Y-80376589D01*
X97572068Y-80646842D01*
X97515000Y-80933740D01*
X97515000Y-81044991D01*
X68292334Y-81044991D01*
X68255009Y-81041315D01*
X68217684Y-81044991D01*
X68217676Y-81044991D01*
X68106023Y-81055988D01*
X67962762Y-81099445D01*
X67830733Y-81170017D01*
X67715008Y-81264990D01*
X67691210Y-81293988D01*
X60405271Y-88579928D01*
X59242000Y-88579928D01*
X59117518Y-88592188D01*
X58997820Y-88628498D01*
X58887506Y-88687463D01*
X58790815Y-88766815D01*
X58711463Y-88863506D01*
X58652498Y-88973820D01*
X58616188Y-89093518D01*
X58603928Y-89218000D01*
X56580000Y-89218000D01*
X56580000Y-74636665D01*
X58607000Y-74636665D01*
X58607000Y-74919335D01*
X58662147Y-75196574D01*
X58770320Y-75457727D01*
X58927363Y-75692759D01*
X59127241Y-75892637D01*
X59362273Y-76049680D01*
X59623426Y-76157853D01*
X59900665Y-76213000D01*
X60183335Y-76213000D01*
X60460574Y-76157853D01*
X60721727Y-76049680D01*
X60956759Y-75892637D01*
X61078694Y-75770702D01*
X61768903Y-75770702D01*
X61840486Y-76014671D01*
X62095996Y-76135571D01*
X62370184Y-76204300D01*
X62652512Y-76218217D01*
X62932130Y-76176787D01*
X63198292Y-76081603D01*
X63323514Y-76014671D01*
X63395097Y-75770702D01*
X62582000Y-74957605D01*
X61768903Y-75770702D01*
X61078694Y-75770702D01*
X61156637Y-75692759D01*
X61312915Y-75458872D01*
X61345329Y-75519514D01*
X61589298Y-75591097D01*
X62402395Y-74778000D01*
X61589298Y-73964903D01*
X61345329Y-74036486D01*
X61314806Y-74100992D01*
X61313680Y-74098273D01*
X61156637Y-73863241D01*
X61078694Y-73785298D01*
X61768903Y-73785298D01*
X62582000Y-74598395D01*
X63395097Y-73785298D01*
X63323514Y-73541329D01*
X63068004Y-73420429D01*
X62793816Y-73351700D01*
X62511488Y-73337783D01*
X62231870Y-73379213D01*
X61965708Y-73474397D01*
X61840486Y-73541329D01*
X61768903Y-73785298D01*
X61078694Y-73785298D01*
X60956759Y-73663363D01*
X60721727Y-73506320D01*
X60460574Y-73398147D01*
X60183335Y-73343000D01*
X59900665Y-73343000D01*
X59623426Y-73398147D01*
X59362273Y-73506320D01*
X59127241Y-73663363D01*
X58927363Y-73863241D01*
X58770320Y-74098273D01*
X58662147Y-74359426D01*
X58607000Y-74636665D01*
X56580000Y-74636665D01*
X56580000Y-70719040D01*
X59858091Y-70719040D01*
X59952930Y-70983881D01*
X60097615Y-71225131D01*
X60286586Y-71433519D01*
X60512580Y-71601037D01*
X60766913Y-71721246D01*
X60900961Y-71761904D01*
X61123000Y-71639915D01*
X61123000Y-70497000D01*
X61377000Y-70497000D01*
X61377000Y-71639915D01*
X61599039Y-71761904D01*
X61733087Y-71721246D01*
X61987420Y-71601037D01*
X62213414Y-71433519D01*
X62402385Y-71225131D01*
X62547070Y-70983881D01*
X62641909Y-70719040D01*
X62520624Y-70497000D01*
X61377000Y-70497000D01*
X61123000Y-70497000D01*
X59979376Y-70497000D01*
X59858091Y-70719040D01*
X56580000Y-70719040D01*
X56580000Y-70020960D01*
X59858091Y-70020960D01*
X59979376Y-70243000D01*
X61123000Y-70243000D01*
X61123000Y-69100085D01*
X61377000Y-69100085D01*
X61377000Y-70243000D01*
X62520624Y-70243000D01*
X62641909Y-70020960D01*
X62547070Y-69756119D01*
X62402385Y-69514869D01*
X62213414Y-69306481D01*
X61987420Y-69138963D01*
X61733087Y-69018754D01*
X61599039Y-68978096D01*
X61377000Y-69100085D01*
X61123000Y-69100085D01*
X60900961Y-68978096D01*
X60766913Y-69018754D01*
X60512580Y-69138963D01*
X60286586Y-69306481D01*
X60097615Y-69514869D01*
X59952930Y-69756119D01*
X59858091Y-70020960D01*
X56580000Y-70020960D01*
X56580000Y-62608665D01*
X59815000Y-62608665D01*
X59815000Y-62891335D01*
X59870147Y-63168574D01*
X59978320Y-63429727D01*
X60135363Y-63664759D01*
X60335241Y-63864637D01*
X60570273Y-64021680D01*
X60831426Y-64129853D01*
X61108665Y-64185000D01*
X61391335Y-64185000D01*
X61668574Y-64129853D01*
X61929727Y-64021680D01*
X62164759Y-63864637D01*
X62364637Y-63664759D01*
X62521680Y-63429727D01*
X62629853Y-63168574D01*
X62685000Y-62891335D01*
X62685000Y-62608665D01*
X62629853Y-62331426D01*
X62521680Y-62070273D01*
X62364637Y-61835241D01*
X62164759Y-61635363D01*
X61929727Y-61478320D01*
X61668574Y-61370147D01*
X61391335Y-61315000D01*
X61108665Y-61315000D01*
X60831426Y-61370147D01*
X60570273Y-61478320D01*
X60335241Y-61635363D01*
X60135363Y-61835241D01*
X59978320Y-62070273D01*
X59870147Y-62331426D01*
X59815000Y-62608665D01*
X56580000Y-62608665D01*
X56580000Y-59353509D01*
X57055330Y-59828839D01*
X57683446Y-60248533D01*
X58381372Y-60537623D01*
X59122285Y-60685000D01*
X59877715Y-60685000D01*
X60618628Y-60537623D01*
X61316554Y-60248533D01*
X61944670Y-59828839D01*
X62478839Y-59294670D01*
X62898533Y-58666554D01*
X63187623Y-57968628D01*
X63335000Y-57227715D01*
X63335000Y-56472285D01*
X63187623Y-55731372D01*
X62898533Y-55033446D01*
X62478839Y-54405330D01*
X62003509Y-53930000D01*
X67267854Y-53930000D01*
X66975537Y-54051082D01*
G37*
%TD.AperFunction*%
D29*
X97572068Y-83186842D02*
X97515000Y-83473740D01*
X97515000Y-83766260D01*
X97572068Y-84053158D01*
X97684010Y-84323411D01*
X97846525Y-84566632D01*
X98053368Y-84773475D01*
X98227760Y-84890000D01*
X98053368Y-85006525D01*
X97846525Y-85213368D01*
X97684010Y-85456589D01*
X97572068Y-85726842D01*
X97515000Y-86013740D01*
X97515000Y-86306260D01*
X97572068Y-86593158D01*
X97643247Y-86764999D01*
X94627179Y-86764999D01*
X94625000Y-86435750D01*
X94466250Y-86277000D01*
X93367000Y-86277000D01*
X93367000Y-86297000D01*
X93113000Y-86297000D01*
X93113000Y-86277000D01*
X92013750Y-86277000D01*
X91855000Y-86435750D01*
X91852821Y-86764999D01*
X75272324Y-86764999D01*
X75235001Y-86761323D01*
X75197678Y-86764999D01*
X75197668Y-86764999D01*
X75086015Y-86775996D01*
X74942754Y-86819453D01*
X74810725Y-86890025D01*
X74695000Y-86984998D01*
X74671202Y-87013996D01*
X73065886Y-88619312D01*
X72883335Y-88583000D01*
X72711802Y-88583000D01*
X75894802Y-85400000D01*
X91851928Y-85400000D01*
X91855000Y-85864250D01*
X92013750Y-86023000D01*
X93113000Y-86023000D01*
X93113000Y-84923750D01*
X93367000Y-84923750D01*
X93367000Y-86023000D01*
X94466250Y-86023000D01*
X94625000Y-85864250D01*
X94628072Y-85400000D01*
X94615812Y-85275518D01*
X94579502Y-85155820D01*
X94520537Y-85045506D01*
X94441185Y-84948815D01*
X94344494Y-84869463D01*
X94234180Y-84810498D01*
X94114482Y-84774188D01*
X93990000Y-84761928D01*
X93525750Y-84765000D01*
X93367000Y-84923750D01*
X93113000Y-84923750D01*
X92954250Y-84765000D01*
X92490000Y-84761928D01*
X92365518Y-84774188D01*
X92245820Y-84810498D01*
X92135506Y-84869463D01*
X92038815Y-84948815D01*
X91959463Y-85045506D01*
X91900498Y-85155820D01*
X91864188Y-85275518D01*
X91851928Y-85400000D01*
X75894802Y-85400000D01*
X78279802Y-83015001D01*
X97643247Y-83015001D01*
X97572068Y-83186842D01*
%TA.AperFunction,Conductor*%
D30*
G36*
X97572068Y-83186842D02*
G01*
X97515000Y-83473740D01*
X97515000Y-83766260D01*
X97572068Y-84053158D01*
X97684010Y-84323411D01*
X97846525Y-84566632D01*
X98053368Y-84773475D01*
X98227760Y-84890000D01*
X98053368Y-85006525D01*
X97846525Y-85213368D01*
X97684010Y-85456589D01*
X97572068Y-85726842D01*
X97515000Y-86013740D01*
X97515000Y-86306260D01*
X97572068Y-86593158D01*
X97643247Y-86764999D01*
X94627179Y-86764999D01*
X94625000Y-86435750D01*
X94466250Y-86277000D01*
X93367000Y-86277000D01*
X93367000Y-86297000D01*
X93113000Y-86297000D01*
X93113000Y-86277000D01*
X92013750Y-86277000D01*
X91855000Y-86435750D01*
X91852821Y-86764999D01*
X75272324Y-86764999D01*
X75235001Y-86761323D01*
X75197678Y-86764999D01*
X75197668Y-86764999D01*
X75086015Y-86775996D01*
X74942754Y-86819453D01*
X74810725Y-86890025D01*
X74695000Y-86984998D01*
X74671202Y-87013996D01*
X73065886Y-88619312D01*
X72883335Y-88583000D01*
X72711802Y-88583000D01*
X75894802Y-85400000D01*
X91851928Y-85400000D01*
X91855000Y-85864250D01*
X92013750Y-86023000D01*
X93113000Y-86023000D01*
X93113000Y-84923750D01*
X93367000Y-84923750D01*
X93367000Y-86023000D01*
X94466250Y-86023000D01*
X94625000Y-85864250D01*
X94628072Y-85400000D01*
X94615812Y-85275518D01*
X94579502Y-85155820D01*
X94520537Y-85045506D01*
X94441185Y-84948815D01*
X94344494Y-84869463D01*
X94234180Y-84810498D01*
X94114482Y-84774188D01*
X93990000Y-84761928D01*
X93525750Y-84765000D01*
X93367000Y-84923750D01*
X93113000Y-84923750D01*
X92954250Y-84765000D01*
X92490000Y-84761928D01*
X92365518Y-84774188D01*
X92245820Y-84810498D01*
X92135506Y-84869463D01*
X92038815Y-84948815D01*
X91959463Y-85045506D01*
X91900498Y-85155820D01*
X91864188Y-85275518D01*
X91851928Y-85400000D01*
X75894802Y-85400000D01*
X78279802Y-83015001D01*
X97643247Y-83015001D01*
X97572068Y-83186842D01*
G37*
%TD.AperFunction*%
D29*
X111163957Y-78788629D02*
X110937114Y-78940201D01*
X110744201Y-79133114D01*
X110592629Y-79359957D01*
X110488225Y-79612011D01*
X110435000Y-79879589D01*
X110435000Y-80152411D01*
X110488225Y-80419989D01*
X110592629Y-80672043D01*
X110744201Y-80898886D01*
X110877315Y-81032000D01*
X110744201Y-81165114D01*
X110592629Y-81391957D01*
X110488225Y-81644011D01*
X110435000Y-81911589D01*
X110435000Y-82184411D01*
X110463833Y-82329365D01*
X106028200Y-86764999D01*
X100356753Y-86764999D01*
X100427932Y-86593158D01*
X100485000Y-86306260D01*
X100485000Y-86013740D01*
X100427932Y-85726842D01*
X100315990Y-85456589D01*
X100153475Y-85213368D01*
X99946632Y-85006525D01*
X99772240Y-84890000D01*
X99946632Y-84773475D01*
X100153475Y-84566632D01*
X100315990Y-84323411D01*
X100427932Y-84053158D01*
X100485000Y-83766260D01*
X100485000Y-83473740D01*
X100427932Y-83186842D01*
X100356753Y-83015001D01*
X103207677Y-83015001D01*
X103244999Y-83018677D01*
X103282321Y-83015001D01*
X103282332Y-83015001D01*
X103393985Y-83004004D01*
X103537246Y-82960547D01*
X103669275Y-82889975D01*
X103785000Y-82795002D01*
X103808803Y-82765998D01*
X107889803Y-78684999D01*
X111414142Y-78684999D01*
X111163957Y-78788629D01*
%TA.AperFunction,Conductor*%
D30*
G36*
X111163957Y-78788629D02*
G01*
X110937114Y-78940201D01*
X110744201Y-79133114D01*
X110592629Y-79359957D01*
X110488225Y-79612011D01*
X110435000Y-79879589D01*
X110435000Y-80152411D01*
X110488225Y-80419989D01*
X110592629Y-80672043D01*
X110744201Y-80898886D01*
X110877315Y-81032000D01*
X110744201Y-81165114D01*
X110592629Y-81391957D01*
X110488225Y-81644011D01*
X110435000Y-81911589D01*
X110435000Y-82184411D01*
X110463833Y-82329365D01*
X106028200Y-86764999D01*
X100356753Y-86764999D01*
X100427932Y-86593158D01*
X100485000Y-86306260D01*
X100485000Y-86013740D01*
X100427932Y-85726842D01*
X100315990Y-85456589D01*
X100153475Y-85213368D01*
X99946632Y-85006525D01*
X99772240Y-84890000D01*
X99946632Y-84773475D01*
X100153475Y-84566632D01*
X100315990Y-84323411D01*
X100427932Y-84053158D01*
X100485000Y-83766260D01*
X100485000Y-83473740D01*
X100427932Y-83186842D01*
X100356753Y-83015001D01*
X103207677Y-83015001D01*
X103244999Y-83018677D01*
X103282321Y-83015001D01*
X103282332Y-83015001D01*
X103393985Y-83004004D01*
X103537246Y-82960547D01*
X103669275Y-82889975D01*
X103785000Y-82795002D01*
X103808803Y-82765998D01*
X107889803Y-78684999D01*
X111414142Y-78684999D01*
X111163957Y-78788629D01*
G37*
%TD.AperFunction*%
%TD*%
M02*
